<?xml version="1.0" encoding="UTF-8"?><svg id="Layer_2" xmlns="http://www.w3.org/2000/svg" viewBox="0 0 1122.73 631.8"><path id="R3" d="M561.36,156.58s5.45-23.49,6.15-26.5,7.77-24.42,9.94-28.42,9.3-18,9.3-18c0,0,11.2-14.75,16.3-19.02s18.08-7.61,22.51-7.88,32.28-.71,32.28-.71c0,0,18.51-.04,21.57,1.26s13.3,8.35,15.53,13.41,4,15.53-.59,29.42-13.53,37.3-13.53,37.3c0,0-13.3,23.18-17.18,27.65s-9.77,12.24-12,20.12c0,0-32.01-6.94-44.83-12.36s-42.24-13.53-46.6-13.53c0,0,1.34-2.43,1.14-2.75Z" fill="#fff"/><path id="Sports-Club" d="M573.05,71.78s2.59,1.41,7.45,0,26.28-10.12,30.44-12,15.53-3.84,20.79-4.16h37.46s1.84.47,2-1.53,0-13.92,0-13.92c0,0,1.41-1.8-3.29-1.57s-47.38.11-49.26-.02-7.14,1.2-10.12,1.35-13.41.08-17.89-.08-5.1-.63-5.73.94-4.16,17.73-9.88,22.44-1.96,8.55-1.96,8.55Z" fill="#fff"/><path id="R1" d="M278.25,157.6c1.01-4.05,2.59-10.75,2.51-12.87s.71-16.94,0-20.63-.79-10.43-2.98-15.45-10.59-23.53-10.43-28.32,2.35-16.79,10.9-20.79,14.75-4.08,28.08-4.31,31.3,0,31.3,0c0,0,10.75.24,14.12,3.29s5.18,7.3,4.31,14.59-4.39,13.81-5.65,18.12-2.2,13.73-2.43,20-.16,10.67,1.26,16.79,2.9,15.77,1.65,24.87-8.79,21.26-8.79,21.26c0,0-1.1,2.35-4.75,2.47s-29.36-2.65-35.24-4.29-21.89-6.71-25.24-8.88c0,0,.33-1.69,1.37-5.84Z" fill="#fff"/><path id="R2" d="M409.49,170.93c7.57-.44,30.75-4,37.81-5.1s36.63-4.86,41.42-5.49,17.34-1.88,21.89-2.51,6.82-12.24,7.77-15.69,10.28-37.42,12.63-42.52,3.53-16,3.53-19.77-4.63-11.69-6.43-14.51-8-6.67-12.63-7.92-31.85-1.41-31.85-1.41c0,0-26.99-.39-35.22.63s-28.48,11.22-33.1,15.77-14.9,17.49-16.87,20.95-4.24,10.12-4.86,15.53-.78,13.57,0,16.32.94,16.24,1.33,18.91-.47,15.77-.47,15.77c0,0-1.18,12,15.06,11.06Z" fill="#fff"/><path id="R6" d="M513.04,391.37s-45.3-33.06-47.3-41.54-3.53-17.89-.59-26.95,14-40.36,14-40.36c0,0-.47-6,5.53-6.12,6-.12,28.24,2.35,37.42,6.24,9.18,3.88,29.53,14.36,35.89,24.12s4.99,12.47,3.38,16.12-21.26,34.01-21.26,34.01c0,0-24.83,34.83-27.06,34.48Z" fill="#fff"/><path id="R5" d="M307.98,265.15s-2.57,18.43-3.45,25.91-1.06,13.24-1.41,15.12-1.77,10.94-1.77,13.53-1.29,13.77-1.65,16.12,2.16,5.06,4.14,6,19.87,0,19.87,0l46.36.42s43.18-.76,47.07,0,7.88,2.64,10.94,2.99,5.53,1.06,6.47-1.06,2.59-6.71,2.35-9.53-1.25-4.94.02-6.71,3.04-2.35,4.45-5.3,4.47-14.12,4.47-14.12l8.59-25.3s.94-2.59,0-5.65,0-3.53-3.18-4.35-10.47-1.41-16.59-2-53.19-5.41-53.19-5.41c0,0-63.78-7.65-65.31-7.65s-4.24,2.59-5.88,4.59-2.31,2.39-2.31,2.39Z" fill="#fff"/><path id="Lavista" d="M80.96,310.65s-24.95-7.06-26.12-22.59,20.95-32.95,26.12-36.01,17.65-10.83,41.42-10.59,45.18,3.77,45.18,3.77c0,0,12.47-.47,9.41,10.12s-10.59,27.3-11.06,31.06,1.41,16-.24,21.89-2.82,10.35-10.59,10.83c-7.77.47-74.13-8.47-74.13-8.47Z" fill="#fff"/><path id="R4" d="M201.68,248.52s-11.53,4-16.12,13.06c-4.59,9.06-9.77,22.24-10.24,26.83s-5.3,17.42,2.94,28.83c8.24,11.41,70.41,9.41,77.62,9.73,7.22.31,21.34-10.67,23.85-21.34s6.9-43.77,6.9-47.46-78.92-11.22-84.96-9.65Z" fill="#fff"/><path id="CBD" d="M605.76,245.46s.82-7.53,2.47-11.88,5.53-19.77,7.3-21.65,5.18-3.41,9.3-2.12,22,6.47,27.3,8.71,15.41,7.41,18,12.24,5.77,12.71,4.82,14.12-19.65.35-31.3.59c-11.65.24-34.95,1.88-37.89,0Z" fill="#fff"/><path id="People-Park" d="M825.09,182.39s-5.59,1.35-5.88-2.18,1.53-17,2.35-20.53,3.77-4.53,5-6,13.47-1.41,16.3-1.47,50.95.53,53.42,1.35,17.42,3.88,20.71,4.94,13.65,1.77,18.94,1.88,10.83,0,15.65-1.29,21.65-5.3,25.53-5.3,39.3.71,44.24.47,16.12-.12,18.12.71,5.06,1.29,4.82,8,2,14.71,2.59,15.89,1.41,4.71-1.88,5.41-15.18.47-19.42,0-57.3-.47-57.3-.47l-50.95-.59-59.19-.24-33.06-.59Z" fill="#fff"/><path id="Palace" d="M902.64,149.56s-2.47,1.18-1.88-12.36c.59-13.53.24-58.83.24-58.83,0,0-.47-19.65,7.06-26.83,7.53-7.18,16.12-15.3,33.77-12.24s24,21.3,24,21.3c0,0,2.12,8.24,1.53,27.18-.59,18.94.1,58.6.1,58.6,0,0-1.28,4.47-5.87,4.35s-58.95-1.18-58.95-1.18Z" fill="#fff"/><path id="Misr-Mosque" d="M923,331.59s-.71-40.24,0-47.77,1.88-13.06,2-16.59,0-11.18,0-11.18c0,0-1.41-1.77,1.77-1.77s12.59-.71,14,0,1.65.12,1.29,4c0,0-1.47,10.94.15,15.65s1.85,12.12,1.85,14.24.47,25.06,0,25.77-20.36,18-21.06,17.65Z" fill="#fff"/><path id="CGD" d="M797.95,333.55s18.67,20.71,31.69,25.26c13.02,4.55,32.63,8.47,46.28,3.14s29.5-13.49,44.24-28.4c0,0,.78-36.71.78-41.58s-.2-16.04.75-18.75,1.18-3.53,1.24-4l.06-.47s.25-13.06-.31-13.83.63-12.77.78-18.42c.16-5.65.39-26.04.39-27.38s1.33-21.73-1.73-21.73h-98.92s-2.98.86-4.86,3.69-3.92,7.84-3.92,12.39-2.2,16.63-2.67,20.55-4.71,19.61-4.71,23.06-2.2,13.65-2.2,13.65c0,0-7.06,34.2-6.9,36.87s-3.14,23.69-3.14,24.32,4.39,2.35,3.92,6.12-.78,5.49-.78,5.49Z" fill="#fff"/><path id="Paralmaint" d="M948.02,227.26s-4.39.86-4.47-1.73l-.08-2.59v-10.04s-1.18-1.49,3.61-1.96,28.87,0,28.87,0c0,0,1.65-.71,2.27.78s.71,1.49.63,1.73-.31,13.49-.31,13.49l-30.52.31Z" fill="#fff"/><path id="Fatah-Mosque" d="M121.43,201.29s-11.14.47-8-4.86,11.77-9.88,14.59-12.39,17.57-16.94,19.61-19.61,10.51-10.51,12.08-12.55,4.39-5.65,5.81-3.45.78,9.57.78,13.34.94,10.44,1.1,14.87-3.61,7.88-7.69,11.96-7.22,7.69-10.04,10.04-8.16,4.08-8.16,4.08c-3.77.63-20.08-1.41-20.08-1.41Z" fill="#fff"/><path id="Green-River" d="M153.2,208.92s-5.3-2.18-6.82-2.24-.47-.76,1.71-2.18,11-8.65,13.94-11.36,11.83-9.83,12.12-14.24-1.65-20.71-2-22.12-.35-.59-.35-1.41.41-10.94,1.29-11.24,4.71,1.71,5.82,3.88,11.06,7.53,11.53,8.47,4.12,4.59,6.65,4.77,4.77,1.29,6,2.12,11.41,6.59,12.12,7.18,29.06,14.3,31.89,16.65,24.83,7.53,24.83,7.53c0,0,26.36,7.18,34.83,8.35s25.65,2.71,40.01,2.59,18.83-.71,23.65-1.65,31.77-3.65,31.77-3.65c0,0,49.42-5.65,55.42-6.94s32.12-3.77,37.42-4.35,44.6-5.77,82.49,4.82c37.89,10.59,81.43,27.53,106.37,29.42,24.95,1.88,21.18,8.71,21.18,8.71,0,0-17.3,34.95-18.47,37.65s-14.47,28.01-14.47,28.01c0,0-22.71-15.65-25.65-17.3s-26.95-16.24-42.13-19.77c-15.18-3.53-9.88-5.65-37.54-7.65-27.65-2-52.36-4.71-56.36-5.3s-37.65-3.53-37.65-3.53l-53.54-5.77s-46.95-5.41-58.36-6.82-46.13-4.24-46.13-4.24c0,0-53.54-5.44-56.36-6.43s-53.66-7.22-53.66-7.22c0,0-51.42-4.47-51.54-4.77Z" fill="#fff"/><path id="R7" d="M702.72,453.61s-28.12,18.59-36.71,36.01-10,22.24-10,22.24c0,0,1.77,2.71,1.18,5.06s-2.71,3.65-3.29,4.59-4,3.53-4.24,8.35-.82,22.12,0,27.3,10,28.36,13.53,39.65,13.88,34.72,13.88,34.72h21.89s29.42,2.23,58.83-6.24c29.42-8.47,96.96-21.18,96.96-21.18,0,0-2.04-54.64-1.73-61.41s.31-41.59.31-41.59c0,0-81.27,18.28-150.62-47.5Z" fill="#fff"/><path id="Diplomatic" d="M856.63,500.09s-1.1-1.1-1.1,9.57v34.83c0,1.41,1.1,53.03,2.51,55.62s10.83,2.12,15.77,0,61.42-16.71,73.9-23.06c12.47-6.35,69.42-24.95,77.66-28.01s12-6.12,9.41-8-15.77-25.89-15.77-25.89c0,0-19.53-35.3-21.18-38.36s-27.53-46.83-28.95-47.3-12.24,10.12-18.12,15.77c-5.88,5.65-43.07,34.83-54.36,40.24s-39.77,14.59-39.77,14.59Z" fill="#fff"/><path id="R8" d="M1042.96,539.81s-5.59-2-9.88-8.53-27.08-45.22-27.08-45.22l-27.77-46.28s-9.1-10.2-5.02-13.81,38.44-32.79,38.44-32.79c0,0,21.26-21.22,24.55-21.81s23.93-20.4,24.4-20.87,36.24-32.16,54.76-32.63l7.38,15.85v173.37s-62.1,32.83-79.77,32.73Z" fill="#fff"/><path id="Knowledge" d="M654.95,185.51s-1.88-1.06-.59-3.41,6.71-10.53,9.35-14.24,7.77-10.77,7.77-10.77c0,0,2.77-2.53,3.29-4.06s5.47-9.24,5.94-10.77,1.18-2.94,2.47-5.88,1.06-7.18,3.06-9.53,7.18.47,8.83.94,13.41,3.18,17.77,3.53,8.35.94,9.3,2.71-1.88,8.24-1.88,8.24c0,0-8,24.95-8.47,26s-7.88,19.65-7.88,19.65c0,0,.47,2.35-3.53,2.71s-43.37-1.27-45.42-5.12Z" fill="#fff"/><path id="Bus-Station" d="M751.67,188.43s-3.18.25-3.53-1.04,1.06-7.47,1.24-8.12,4.53-9.71,8.18-14.41,10.71-14.24,10.83-16.47c0,0,2.12-.12,3.65-1.65s10.12-.47,11.41,1.88,0,35.42,0,35.42c0,0-5.77,4.36-12.83,4.41s-18.94-.02-18.94-.02Z" fill="#fff"/><path id="Art-City" d="M753.24,250.71s-4.98,1-5.16-4.36.92-11.32.92-14.15,2.2-13.96,1.65-18.36-1.8-17.1-2.59-18.51.63-3.61,3.61-3.29,8.79.88,16.16-.03,10.67-3.54,10.67-3.54v25.22s1.26,33.42,1.1,34.99-.94,1.87-4.24,2.11-22.12-.07-22.12-.07Z" fill="#fff"/><path id="Military-Academy" d="M87.66,547.75s-2.12.71-2-3.35.41-12.3.41-12.3c0,0,.06-24.59.06-27.65s.82-33.3.53-36.48-1.35-6.24,1-6.94,9.53-.59,12-.59,3.77,1.53,5.88,2.59.59,3.18,3.77,1.06,2.12-2.24,5.06-2.82,30.71.12,30.71.12l70.48,1.06s10.94-2,11.3,2.53.47,16.47.47,16.47c0,0,1.53,37.12,1.29,39.95s-1.53,18.71-1.65,20.59,1.88,5.62-2.82,5.81-24,0-24,0c0,0-29.06,1.13-34.01.89s-9.53.03-9.53.03c0,0-1.77-3.21-4.82-2.97s-4.71,2.97-4.71,2.97l-8.71.56s-22.59-.71-24.59-.82-2.24.12-4.12-1.18-2.35-2.47-3.88-1.88-2.71,1.29-3.53,2.35c0,0-1.92,1.01-5.61,1.29-4,.31-8.98-1.29-8.98-1.29Z" fill="#fff"/><path id="People-Square" d="M929.11,251.97s-4.24.67-4.55-.75-.42-10.04-.42-10.04l.85-30.45s.12-14.46.12-16.23-.47-5.3.35-5.88,13.53,0,13.53,0c0,0,3.18-1.06,3.06,1.88s0,48.13,0,48.13v9.3s.35,2.47-3.18,2.82-9.77,1.22-9.77,1.22Z" fill="#fff"/><path id="Diamond-Hotel" d="M787.28,297.55s3.22,3.37,5.1,4.08,2.98.16,3.53-1.02,1.49-9.88,1.49-9.88c0,0,3.22-17.42,4-21.42s1.73-12.32,1.73-13.02-.71-2.9-3.37-2.67-25.73-.19-30.75-.02-10.51,1.35-12.08,1.19-.16,3.14,1.02,4.94,15.61,21.65,17.1,23.22,12.24,14.59,12.24,14.59Z" fill="#fff"/></svg>