<svg xmlns="http://www.w3.org/2000/svg" fill="none" viewBox="17.10494450050454 0 81.57921291624622 30.740000000000002" style="max-height: 500px" width="81.57921291624622" height="30.740000000000002"><path fill="#D1D1D1" d="M66.5002 52.8383C66.3694 52.4206 66.378 52.3498 66.5491 52.3498C66.8265 52.3498 67.505 51.9558 67.6919 51.688C67.9779 51.2787 68.0268 50.947 68.0354 49.4956V48.1705H68.4437H68.8519V49.6053C68.8519 51.3244 68.7542 51.774 68.2554 52.3179C67.9118 52.6967 67.3569 53.0117 66.8826 53.0991C66.6051 53.1463 66.5879 53.138 66.4988 52.8383H66.5002Z"></path><path fill="#D1D1D1" d="M16.6707 52.7661C16.6218 52.601 16.5801 52.4428 16.5801 52.4192C16.5801 52.3956 16.7684 52.3318 16.997 52.2777C17.5519 52.1362 17.9932 51.7185 18.1657 51.1579C18.2634 50.8582 18.2965 50.3934 18.2965 49.4554V48.1622L18.7292 48.1858L19.1533 48.2094V49.0919C19.1533 49.8647 19.1777 49.9979 19.3243 50.195C19.4882 50.4073 19.5284 50.4156 20.263 50.4392L21.0306 50.4628L21.1284 49.9896C21.2434 49.4068 21.4878 49.06 21.9204 48.8699C22.3618 48.6812 22.8189 48.6812 23.2516 48.8851C23.7087 49.0974 23.9214 49.3971 24.035 49.9882L24.1328 50.4531L25.4308 50.4378C26.3206 50.4225 26.7461 50.3823 26.7619 50.3199C26.8194 50.17 26.2387 49.6968 25.6349 49.3902C24.932 49.035 24.8256 48.8546 25.0384 48.4286C25.1606 48.1997 25.3086 48.0734 25.6838 47.893C26.1496 47.6641 26.2229 47.6571 27.2363 47.6571C28.2497 47.6571 28.3231 47.6655 28.7888 47.893C29.1151 48.0512 29.3279 48.2163 29.4342 48.3898C29.6786 48.8074 29.5248 49.139 28.7888 49.8162C28.4539 50.1242 28.1764 50.392 28.1764 50.4156C28.1764 50.4392 28.7155 50.4475 29.3854 50.4392L30.5857 50.4156L30.6101 48.1136L30.6259 45.8034H31.0342H31.4424V48.523V51.2426H29.67C28.0859 51.2426 27.8645 51.2273 27.6446 51.0927C27.4002 50.9512 27.3829 50.9512 27.1141 51.0927C26.8697 51.2273 26.6326 51.2426 25.3819 51.2426H23.9358L23.7475 51.4868C23.3723 51.9752 22.6205 52.1653 22.0153 51.9211C21.8687 51.8587 21.6157 51.6852 21.4604 51.5354L21.1658 51.2509H20.2831C19.7929 51.2426 19.3027 51.2356 19.1964 51.2273C19.0325 51.2037 18.9836 51.2592 18.8773 51.5825C18.6329 52.3152 17.7014 53.0575 17.0071 53.0575C16.7699 53.0575 16.7368 53.0256 16.6635 52.7661H16.6707ZM23.0417 51.04C23.1969 50.8749 23.2372 50.7556 23.2372 50.3781C23.2372 49.9993 23.1969 49.8814 23.0417 49.7163C22.8289 49.504 22.494 49.4485 22.2252 49.59C21.8414 49.787 21.8011 50.7014 22.1519 51.065C22.3963 51.3175 22.7815 51.3092 23.0417 51.0414V51.04ZM28.4654 49.0378L28.7097 48.7852L28.5142 48.6354C28.3504 48.5008 28.1879 48.4855 27.2406 48.4855C26.4155 48.4855 26.1381 48.5091 26.0648 48.5965C25.9914 48.6839 26.0001 48.7145 26.105 48.7547C26.4241 48.8726 27.1501 49.4013 27.3053 49.6372L27.4764 49.8897L27.8516 49.59C28.0557 49.4249 28.3331 49.1807 28.4639 49.0378H28.4654Z"></path><path fill="#D1D1D1" d="M10.5441 52.3804C10.4463 52.2624 10.373 52.1445 10.373 52.1126C10.373 51.971 10.7238 51.6394 10.8718 51.6394C10.9624 51.6394 11.1162 51.7268 11.2226 51.8365C11.4109 52.0335 11.4109 52.0335 11.5575 51.8753C11.8349 51.5756 12.4157 51.7407 12.4157 52.1195C12.4157 52.3013 12.1383 52.5843 11.9499 52.5843C11.8766 52.5843 11.73 52.5053 11.6308 52.4192L11.4425 52.2541L11.2226 52.4192C10.9279 52.6398 10.7482 52.6315 10.5441 52.3804Z"></path><path fill="#D1D1D1" d="M40.2011 52.4276C39.9726 52.2153 39.9726 52.0252 40.2097 51.8129C40.4627 51.5839 40.6424 51.5922 40.8882 51.8517L41.0924 52.064L41.2146 51.8822C41.3123 51.7477 41.4101 51.7171 41.6314 51.7324C41.975 51.7643 42.113 51.9211 42.0311 52.2208C41.9491 52.5358 41.607 52.6385 41.3123 52.4262L41.0751 52.2611L40.8624 52.4192C40.5921 52.6246 40.4297 52.6246 40.2011 52.4276Z"></path><path fill="#D1D1D1" d="M64.5409 52.4595C64.2304 52.2541 64.3454 51.7976 64.7364 51.6866C64.9491 51.6242 65.3401 51.9072 65.3401 52.1209C65.3401 52.3096 65.0627 52.5857 64.8658 52.5857C64.7838 52.5857 64.6372 52.5302 64.5394 52.4595H64.5409Z"></path><path fill="#D1D1D1" d="M65.6017 52.4595C65.3732 52.3096 65.3646 52.0099 65.5859 51.7976C65.7901 51.6006 65.9209 51.6006 66.1581 51.7823C66.3866 51.9558 66.4024 52.3179 66.1911 52.4678C65.987 52.6177 65.8231 52.6177 65.6032 52.4595H65.6017Z"></path><path fill="#D1D1D1" d="M44.3828 51.9475C44.2362 51.9086 43.999 51.7421 43.8524 51.5853C43.5821 51.2856 43.5821 51.2856 43.0114 51.3092C42.1949 51.3411 41.7048 51.262 41.3612 51.0414L41.0593 50.8444L40.8638 51.0178C40.6266 51.2467 40.1206 51.3092 38.617 51.3175L37.4986 51.3258L37.4411 50.861L37.3922 50.3878H36.8288C36.4938 50.3878 36.1747 50.3407 36.0281 50.2699C35.1052 49.8051 35.0649 48.3065 35.9547 47.7792C36.1833 47.6446 36.3716 47.6211 37.2284 47.6211C37.9629 47.6211 38.2332 47.6446 38.2418 47.7237C38.2504 47.7709 38.2576 48.0706 38.2663 48.3703C38.2663 48.6784 38.2749 49.2695 38.2907 49.6955L38.3065 50.4683L39.3933 50.4447L40.4714 50.4211L40.4958 49.3014L40.5203 48.1733H40.9616H41.4115V49.0724C41.4115 49.9313 41.4201 49.9868 41.6242 50.2158C41.837 50.46 41.8442 50.46 42.6377 50.46H43.4384L43.4714 50.0021C43.5117 49.4429 43.7489 49.0794 44.2233 48.874C44.8026 48.6215 45.4811 48.7006 45.8979 49.0627C46.1596 49.2986 46.3968 49.8037 46.3968 50.1658V50.4572H47.2463C47.932 50.4572 48.1117 50.4336 48.2023 50.3226C48.2842 50.2352 48.3244 49.8883 48.3489 49.1793L48.3733 48.1705H48.7729H49.1726V49.0461V49.9216L49.45 50.1894L49.7274 50.4572H50.577C51.1319 50.4572 51.4596 50.4253 51.5243 50.3629C51.589 50.3004 51.6221 49.9286 51.6221 49.2195V48.1705H52.072H52.5219V49.0849C52.5219 49.991 52.5219 49.9993 52.7663 50.2283C53.0035 50.4572 53.0193 50.4642 53.7625 50.4406L54.5215 50.417L54.5459 48.115L54.5617 45.8047H54.97H55.3782V47.6807C55.3782 48.745 55.4185 49.676 55.4688 49.8495C55.5996 50.3226 55.9101 50.4572 56.833 50.4572H57.5848V48.1317V45.8061H57.9844H58.3769L58.4344 46.2238C58.4991 46.8066 58.4991 51.2454 58.4257 51.2454C56.5311 51.348 55.8124 51.3009 55.4286 51.0483C55.1669 50.8832 55.1583 50.8749 54.9786 51.0164C54.4726 51.4188 52.9934 51.4188 52.4472 51.0317L52.2344 50.8735L51.9153 51.0788C51.6134 51.2676 51.5315 51.2842 50.6 51.2842C49.6527 51.2842 49.5952 51.2759 49.2689 51.0636L48.9253 50.8513L48.6881 51.0095C48.3618 51.2454 47.9363 51.3244 47.0221 51.3175C46.2458 51.3022 46.2214 51.3092 46.0503 51.5229C45.7068 51.9489 45.0053 52.1223 44.3843 51.9489L44.3828 51.9475ZM45.2079 51.1982C45.6823 51.0164 45.6823 49.7399 45.2079 49.5581C44.9061 49.4471 44.6042 49.5109 44.4317 49.7315C44.2764 49.9133 44.2606 50.0229 44.2851 50.4489C44.3095 50.8582 44.3498 50.9776 44.505 51.0955C44.7005 51.2454 44.9621 51.2842 45.2079 51.1982ZM37.4081 49.0378V48.4147L37.1306 48.3592C36.5341 48.2566 36.0367 48.6354 36.1416 49.1155C36.2322 49.5248 36.4435 49.6677 36.9581 49.6677H37.4081V49.0364V49.0378Z"></path><path fill="#D1D1D1" d="M87.3439 51.8836C87.1556 51.8045 86.9271 51.6228 86.8293 51.4896L86.6496 51.2454H85.3099H83.9701L83.9457 50.836L83.9212 50.4184L83.26 50.3795C82.7051 50.3407 82.5499 50.3004 82.304 50.1187C81.9447 49.8578 81.8052 49.4804 81.8541 48.8726C81.8944 48.3523 82.0496 48.0845 82.4909 47.7931C82.7439 47.628 82.8417 47.6197 83.7487 47.6349L84.7377 47.6585L84.7622 49.0613L84.778 50.4572H85.6362H86.4944V50.2449C86.4944 49.8425 86.6741 49.4013 86.9357 49.1488C87.4661 48.6367 88.3732 48.5965 88.9122 49.0544C89.2802 49.3624 89.3622 49.5276 89.4269 50.016L89.4757 50.4184L90.4389 50.442L91.3948 50.4656V49.6691V48.881H91.7628C92.1064 48.881 92.1308 48.8962 92.1308 49.0863C92.1308 49.2834 92.1552 49.275 92.5549 48.881C93.0939 48.3523 93.5683 48.1483 94.2123 48.14C95.4859 48.14 96.2952 49.1252 96.2952 50.6792V51.2467H92.8409H89.3866L89.1006 51.5312C88.6017 52.0432 87.9894 52.1695 87.3439 51.8864V51.8836ZM88.4465 51.04C88.5773 50.8818 88.6175 50.7167 88.6175 50.3781C88.6175 49.7954 88.4134 49.5109 87.9966 49.5109C87.5064 49.5109 87.2447 49.9202 87.3353 50.5516C87.4259 51.1982 88.0871 51.4812 88.4465 51.04ZM95.4457 50.1256C95.1927 48.6201 93.5755 48.4467 92.7259 49.8259C92.5793 50.0618 92.4557 50.299 92.4557 50.3545C92.4557 50.4336 92.7906 50.4572 93.9751 50.4572H95.5032L95.4457 50.1256ZM83.9457 49.2029C83.9859 48.4619 83.9543 48.4064 83.3908 48.4064C82.8273 48.4064 82.6562 48.5563 82.6562 49.0447C82.6562 49.4707 82.9581 49.683 83.5058 49.6524L83.9227 49.6289L83.9471 49.2029H83.9457Z"></path><path fill="#D1D1D1" d="M7.89766 51.2689C7.8646 51.2454 7.84016 51.0331 7.84016 50.8111V50.4017H7.23641C6.4846 50.4017 6.15828 50.2435 5.90528 49.7468C5.66091 49.2889 5.66091 48.7852 5.89666 48.3273C6.21578 47.7279 6.38685 47.6571 7.60441 47.6335L8.6581 47.6016V49.028V50.4544H9.66291C10.2106 50.4544 10.7166 50.4156 10.7813 50.3754C10.879 50.3199 10.9121 50.0756 10.9279 49.232L10.961 48.1678H11.3534H11.7458L11.7789 49.1224C11.8033 50.0521 11.812 50.077 12.0319 50.2657C12.2447 50.4392 12.3266 50.4544 13.2408 50.4544H14.2126V49.3111V48.1678H14.6625H15.1125V49.3028C15.1125 50.596 15.055 51.1399 14.9083 51.1954C14.8508 51.2107 14.4182 51.2578 13.9452 51.2898C12.8182 51.3605 12.0908 51.2814 11.7315 51.0455L11.454 50.8638L11.1522 51.0691C10.8503 51.2745 10.8172 51.2814 9.40416 51.2981C8.60347 51.3133 7.92641 51.2981 7.90197 51.2662L7.89766 51.2689ZM7.84016 49.0377V48.4064H7.3586C6.93453 48.4064 6.8526 48.43 6.70453 48.6118C6.47597 48.8962 6.4846 49.2348 6.7376 49.4707C6.90147 49.6358 7.01503 49.6677 7.39166 49.6677H7.8416V49.0364L7.84016 49.0377Z"></path><path fill="#D1D1D1" d="M62.6779 50.8346L62.6204 50.3767H62.0324C61.3539 50.3767 61.0118 50.2116 60.7344 49.7454C60.4972 49.3597 60.5058 48.6104 60.7502 48.2316C61.0765 47.7265 61.2562 47.6641 62.4249 47.6322L63.4628 47.6002L63.4786 48.294C63.4872 48.6798 63.4944 49.3194 63.503 49.7052V50.4142L64.5898 50.4378L65.6679 50.4614L65.6837 49.8855C65.6995 49.5706 65.7081 49.0655 65.7081 48.7575V48.2052L66.1408 48.1816L66.5649 48.158V49.325C66.5649 50.8 66.5002 51.0511 66.0905 51.1621C65.9266 51.201 65.1015 51.2495 64.2606 51.2565L62.7253 51.28L62.6764 50.8305L62.6779 50.8346ZM62.6448 49.0377V48.4064H62.1704C61.5825 48.4064 61.3784 48.5715 61.3784 49.053C61.3784 49.4943 61.6156 49.6677 62.2035 49.6677H62.6448V49.0364V49.0377Z"></path><path fill="#D1D1D1" d="M98.6082 51.2606L97.1951 51.2454V48.5257V45.8061H97.6034H98.0116V48.1317V50.4572H99.3844C100.136 50.4572 100.806 50.4184 100.871 50.3781C101.051 50.2671 100.487 49.7551 99.7769 49.3763C99.1559 49.0447 99.0495 48.8879 99.1889 48.4855C99.3844 47.9027 100.438 47.5558 101.753 47.6502C102.905 47.7293 103.648 48.1705 103.648 48.7616C103.648 49.0461 103.125 49.7315 102.619 50.102C102.464 50.213 102.341 50.3379 102.341 50.3865C102.341 50.4253 102.832 50.4572 103.526 50.4572H104.71L104.726 48.1553L104.751 45.845L105.183 45.8214L105.607 45.7978V48.5174V51.2454L104.407 51.2606C102.546 51.2925 102.193 51.2689 101.876 51.0872C101.59 50.922 101.581 50.922 101.246 51.0788C100.838 51.2606 100.405 51.2911 98.6082 51.2606ZM102.251 49.361C103.034 48.6589 102.855 48.4855 101.319 48.4855C100.119 48.4855 99.9551 48.5729 100.527 48.8879C100.74 49.0058 101.058 49.2584 101.237 49.4554C101.417 49.6524 101.605 49.8106 101.646 49.8176C101.694 49.8176 101.965 49.6122 102.249 49.3597L102.251 49.361Z"></path><path fill="#D1D1D1" d="M16.008 48.5257V45.8061H16.4162H16.8245V48.5257V51.2454H16.4162H16.008V48.5257Z"></path><path fill="#D1D1D1" d="M32.3437 48.5174V45.7978L32.7764 45.8214L33.2005 45.845L33.2249 48.5493L33.2408 51.2454H32.7908H32.3409V48.5174H32.3437Z"></path><path fill="#D1D1D1" d="M69.7518 48.5257V45.8061H70.2017H70.6517V48.1317V50.4572L72.2286 50.442L73.7969 50.4184L73.7639 50.1825C73.6992 49.6469 73.3312 49.189 72.7102 48.8893C72.3422 48.7075 72.3422 48.7075 72.5391 48.1955C72.6211 47.9749 72.6944 47.9749 73.1026 48.1719C73.8703 48.5507 74.3604 49.1807 74.4999 49.9771L74.5904 50.4586H75.7088C76.5497 50.4586 76.8689 50.4267 76.9911 50.3476C77.1377 50.2366 77.1463 50.1034 77.1708 48.0221L77.1952 45.8061H77.5948H78.0031V48.0373C78.0031 50.0562 77.9873 50.2921 77.8392 50.5918C77.7486 50.7888 77.5689 50.9942 77.4151 51.0886C77.1535 51.2384 77.0155 51.2467 73.4534 51.2467H69.7533V48.5271L69.7518 48.5257Z"></path><path fill="#D1D1D1" d="M78.8986 48.5174V45.7978L79.3313 45.8214L79.7554 45.845L79.7798 48.5493L79.7956 51.2454H79.3457H78.8958V48.5174H78.8986Z"></path><path fill="#D1D1D1" d="M106.506 51.1898C106.506 51.151 106.497 49.9369 106.497 48.4855L106.481 45.845L106.905 45.8214L107.322 45.7978V48.5174V51.2454H106.914C106.694 51.2454 106.506 51.2218 106.506 51.1898Z"></path><path fill="#D1D1D1" d="M75.5507 48.0123V45.8047H75.9589H76.3672V48.0123V50.2199H75.9589H75.5507V48.0123Z"></path><path fill="#D1D1D1" d="M14.2686 47.4767C14.0803 47.2797 14.0976 47.0188 14.2931 46.8301C14.6122 46.5221 15.1096 46.7191 15.1096 47.1687C15.1096 47.578 14.5547 47.7834 14.2686 47.4767Z"></path><path fill="#D1D1D1" d="M48.3518 47.4615C48.2612 47.3741 48.1879 47.2492 48.1879 47.1854C48.1879 47.0202 48.5559 46.6733 48.7183 46.6733C48.8736 46.6733 49.2488 47.0202 49.2488 47.1618C49.2488 47.5711 48.6608 47.7612 48.3503 47.4615H48.3518Z"></path><path fill="#D1D1D1" d="M51.1865 47.4767C50.9004 47.1687 51.1046 46.751 51.5301 46.751C51.6522 46.751 51.8247 46.8218 51.8981 46.9009C52.0375 47.0508 52.0447 47.0508 52.1999 46.9009C52.4285 46.6803 52.8123 46.7039 52.9834 46.9564C53.1056 47.1451 53.1056 47.1854 52.9992 47.3741C52.8353 47.6502 52.4846 47.689 52.2316 47.4615L52.0432 47.288L51.8722 47.4532C51.6594 47.6585 51.3662 47.6655 51.1865 47.4767Z"></path><path fill="#D1D1D1" d="M6.49319 47.0508C6.28044 46.9328 6.20713 46.8301 6.20713 46.6248C6.20713 46.2543 6.78644 46.0573 7.04806 46.3403C7.24356 46.5457 7.21913 46.7261 6.98338 46.9481C6.76344 47.1687 6.72175 47.177 6.49319 47.0508Z"></path><path fill="#D1D1D1" d="M7.61156 47.0591C7.51381 47.0202 7.39163 46.9009 7.34131 46.7982C7.10413 46.3015 7.90481 45.9393 8.22394 46.4042C8.34613 46.5859 8.34613 46.6331 8.23975 46.8135C8.10031 47.0494 7.86456 47.1451 7.61013 47.0577L7.61156 47.0591Z"></path><path fill="#D1D1D1" d="M61.2159 46.9481C60.9543 46.7039 60.9629 46.554 61.2159 46.3098C61.4359 46.0975 61.6975 46.1044 61.8944 46.3417C62.0899 46.5859 62.0094 46.894 61.6903 47.0591C61.4531 47.177 61.4459 47.177 61.2159 46.9481Z"></path><path fill="#D1D1D1" d="M62.4824 47.0424C62.2207 46.9162 62.123 46.7344 62.1805 46.4985C62.2869 46.0961 62.9726 46.0489 63.0948 46.4361C63.2342 46.8621 62.8576 47.2242 62.4824 47.0438V47.0424Z"></path><path fill="#D1D1D1" d="M36.0022 46.98C35.8139 46.8773 35.8139 46.4916 35.9864 46.3181C36.1905 46.1294 36.5987 46.1919 36.7454 46.4444C36.8517 46.6331 36.8517 46.6733 36.7296 46.862C36.5743 47.0827 36.2638 47.1298 36.0022 46.98Z"></path><path fill="#D1D1D1" d="M37.0487 46.8926C36.8776 46.6636 36.8848 46.4902 37.0645 46.3334C37.3836 46.0573 37.8983 46.246 37.8983 46.6331C37.8983 47.0508 37.2945 47.2325 37.0487 46.894V46.8926Z"></path><path fill="#D1D1D1" d="M82.4924 46.9481C82.3285 46.7594 82.3702 46.4194 82.5743 46.2626C82.8029 46.0809 82.8359 46.0809 83.0976 46.2862C83.3419 46.4749 83.375 46.7511 83.1623 46.9328C82.9739 47.0979 82.6232 47.1063 82.4924 46.9481Z"></path><path fill="#D1D1D1" d="M83.4972 46.8621C83.375 46.6734 83.375 46.6331 83.4814 46.4444C83.5791 46.2793 83.6611 46.239 83.9227 46.239C84.1843 46.239 84.2662 46.2779 84.364 46.4444C84.4704 46.6331 84.4704 46.6734 84.3482 46.8621C84.2418 47.0202 84.1354 47.0674 83.9241 47.0674C83.7114 47.0674 83.605 47.0202 83.5001 46.8621H83.4972Z"></path><path fill="#D1D1D1" d="M50.2392 42.0125C49.4557 41.0343 48.5156 39.97 48.4265 39.97C48.3862 39.97 48.3532 40.4349 48.3532 41.0579C48.3532 42.186 48.3934 42.3344 48.7039 42.3344C48.7859 42.3344 48.8434 42.3733 48.8261 42.4288C48.7931 42.5162 47.7149 42.5315 47.6258 42.4524C47.61 42.4288 47.6905 42.3816 47.8141 42.3344L48.0269 42.2554L48.0111 40.7804C47.9866 39.3304 47.9866 39.2985 47.7983 39.2194C47.5209 39.1014 47.6272 38.9835 48.0427 38.9585L48.4107 38.9349L49.4644 40.2045L50.5181 41.4742L50.5425 40.4335C50.5669 39.3845 50.5181 39.1805 50.2564 39.1805C50.1917 39.1805 50.1501 39.1333 50.1659 39.0862C50.2147 38.9599 51.2929 38.8975 51.2929 39.0154C51.2929 39.0626 51.2023 39.1181 51.0887 39.15C50.9737 39.1736 50.876 39.2055 50.8688 39.2124C50.8602 39.2124 50.8357 39.9936 50.8113 40.9469L50.7624 42.6661L50.2392 42.0111V42.0125Z"></path><path fill="#D1D1D1" d="M20.8279 42.4552C20.8279 42.3927 20.8926 42.3372 20.9746 42.3372C21.2851 42.3372 21.3181 42.1957 21.3181 40.847C21.3181 39.3651 21.2937 39.2152 21.0479 39.1514C20.9257 39.1195 20.8926 39.0889 20.9573 39.0251C21.0148 38.9696 21.4806 38.946 22.264 38.9627L23.4816 38.9863V39.4039C23.4816 39.8535 23.3666 39.9243 23.2372 39.5454L23.1552 39.3012H22.5012H21.8471L21.8629 39.6953C21.8716 39.9159 21.8787 40.1921 21.8787 40.31C21.8874 40.5306 21.8946 40.5306 22.3531 40.507C22.77 40.4834 22.8275 40.4598 22.8677 40.2947C22.8922 40.1837 22.9583 40.0894 23.0144 40.0658C23.0963 40.0422 23.1121 40.192 23.0963 40.6971C23.0719 41.3437 22.9497 41.5727 22.8677 41.1065C22.8275 40.8942 22.7944 40.8775 22.3776 40.8303C22.1332 40.8067 21.9032 40.8067 21.8787 40.8303C21.8543 40.8539 21.8543 41.1925 21.8787 41.5865C21.9276 42.2415 21.9434 42.2956 22.1159 42.3358C22.5486 42.4302 22.3042 42.5329 21.5855 42.5565C20.9487 42.5717 20.8265 42.5565 20.8265 42.4538L20.8279 42.4552Z"></path><path fill="#D1D1D1" d="M24.9924 42.4857C24.6977 42.3747 24.2736 41.957 24.0695 41.5866C23.8496 41.1689 23.8323 40.2933 24.0451 39.891C24.3958 39.236 24.9349 38.9127 25.6867 38.9058C26.3321 38.9058 26.8554 39.1902 27.1731 39.7175C27.3686 40.0408 27.4016 40.1671 27.4016 40.7193C27.4016 41.5866 27.1156 42.0916 26.4457 42.4219C26.1107 42.587 25.3431 42.6189 24.9924 42.4843V42.4857ZM26.3407 42.0764C26.6843 41.7447 26.8223 41.2716 26.7734 40.6014C26.7087 39.7022 26.2746 39.1583 25.6378 39.1583C25.2296 39.1583 24.7969 39.4733 24.6574 39.8674C24.4777 40.3489 24.5266 41.223 24.748 41.6643C25.0987 42.3664 25.8419 42.5551 26.3407 42.0736V42.0764Z"></path><path fill="#D1D1D1" d="M27.7696 42.4788C27.7696 42.4468 27.8674 42.3761 27.9982 42.3206L28.2181 42.2179L28.2426 41.0357C28.2756 39.5455 28.2267 39.1833 28.0054 39.1833C27.9076 39.1833 27.8501 39.1444 27.8746 39.0889C27.9321 38.9155 29.7864 38.9544 30.1127 39.1278C30.3988 39.2693 30.6274 39.6162 30.6274 39.8923C30.6274 40.1837 30.383 40.5306 30.0883 40.6486C29.9331 40.711 29.8109 40.7832 29.8109 40.8067C29.8109 40.8775 30.4649 41.7766 30.7251 42.0597C30.8559 42.2096 31.0442 42.3358 31.1247 42.3358C31.2067 42.3358 31.28 42.3747 31.28 42.4149C31.28 42.4704 31.0845 42.494 30.774 42.4774L30.268 42.4538L29.7131 41.7045C28.9211 40.6402 28.6594 40.6486 28.7989 41.7281C28.8636 42.2332 28.8966 42.2956 29.0605 42.3192C29.1582 42.3344 29.2402 42.39 29.2402 42.4455C29.2402 42.5245 29.0605 42.5481 28.5056 42.5398C28.106 42.5398 27.7711 42.5079 27.7711 42.4774L27.7696 42.4788ZM29.4443 40.5709C29.8195 40.4127 30.0078 40.1213 29.9431 39.7744C29.8698 39.4192 29.624 39.2624 29.1424 39.2624H28.75V39.9173C28.75 40.2795 28.7744 40.6028 28.8075 40.6264C28.8894 40.7138 29.1424 40.6888 29.4443 40.5709Z"></path><path fill="#D1D1D1" d="M33.7324 42.4233C33.2091 42.1555 33.12 41.9029 33.0956 40.5001C33.0711 39.372 33.0553 39.2541 32.9072 39.175C32.6212 39.0334 32.8339 38.946 33.4952 38.946C34.0012 38.946 34.1406 38.9696 34.1406 39.057C34.1406 39.1278 34.0429 39.1833 33.9207 39.1986L33.6921 39.2222L33.6677 40.4044C33.6433 41.8155 33.7252 42.0764 34.2556 42.2415C34.8594 42.4302 35.4488 42.1471 35.5623 41.6185C35.627 41.2716 35.6198 39.3956 35.5465 39.2929C35.5134 39.2457 35.4071 39.1819 35.3021 39.1514C34.9672 39.0487 35.2044 38.946 35.7837 38.946C36.363 38.946 36.4866 39.0168 36.1517 39.1667C35.9231 39.2693 35.8742 39.5219 35.8656 40.8692C35.857 41.9334 35.7434 42.2179 35.2533 42.4455C34.8694 42.6189 34.0932 42.6106 33.7338 42.4219L33.7324 42.4233Z"></path><path fill="#D1D1D1" d="M36.6404 42.5023C36.6074 42.4552 36.6649 42.3844 36.7799 42.3442C36.8863 42.3053 36.9998 42.2096 37.0329 42.1388C37.0976 41.9737 37.0976 39.6717 37.0242 39.4344C36.9998 39.3318 36.8934 39.2138 36.7871 39.1736C36.3702 39.0237 36.5987 38.9446 37.4325 38.9446C38.4531 38.953 38.8298 39.0237 39.123 39.2999C39.5729 39.7175 39.4579 40.403 38.9031 40.6638C38.732 40.7429 38.6414 40.8289 38.6745 40.8997C38.7967 41.2078 39.6707 42.2637 39.8346 42.3025C40.1781 42.3899 40.0301 42.4912 39.5816 42.4912H39.1316L38.5437 41.7031C38.0866 41.0954 37.9069 40.915 37.7602 40.915C37.5806 40.915 37.5719 40.9386 37.5806 41.4908C37.5892 42.1291 37.6711 42.3344 37.8997 42.3344C37.9816 42.3344 38.0794 42.3733 38.1038 42.4135C38.1369 42.4607 37.973 42.4926 37.6711 42.4926C37.4009 42.4926 37.0746 42.5162 36.9366 42.5398C36.7971 42.5717 36.6749 42.5481 36.6419 42.501L36.6404 42.5023ZM38.1512 40.6028C38.5437 40.5001 38.7306 40.2795 38.7306 39.9326C38.7306 39.4983 38.4603 39.2624 37.9629 39.2624H37.5705V39.9173C37.5705 40.7457 37.5791 40.7526 38.1498 40.6028H38.1512Z"></path><path fill="#D1D1D1" d="M40.9443 42.5176L40.3478 42.4857L40.5188 42.2651C40.6741 42.0597 40.6827 41.957 40.6583 40.6888C40.6338 39.3803 40.6252 39.3248 40.4455 39.1986C40.3391 39.1195 40.2816 39.0334 40.3147 39.0015C40.4124 38.9141 42.0383 38.9391 42.4379 39.0334C43.2386 39.2305 43.4671 40.0505 42.8548 40.5237C42.6995 40.65 42.6995 40.65 42.9281 40.7998C43.2716 41.0121 43.3608 41.155 43.3694 41.4853C43.378 42.3289 42.7081 42.6134 40.9429 42.5176H40.9443ZM42.4551 42.1C42.8145 41.7767 42.7814 41.2646 42.3904 40.9802C42.1533 40.8151 41.3368 40.6957 41.2634 40.8151C41.2304 40.8623 41.2146 41.2091 41.2304 41.5796L41.2548 42.2581H41.7694C42.1691 42.2581 42.3171 42.2262 42.4551 42.1ZM42.3401 40.3572C42.504 40.2309 42.5529 40.1282 42.5529 39.8923C42.5529 39.4428 42.2668 39.2457 41.6631 39.2777C41.3612 39.2929 41.2059 39.3332 41.2131 39.4039C41.2218 39.4511 41.2289 39.7272 41.2376 40.0117L41.2462 40.5237H41.6875C42.0066 40.5237 42.1777 40.4765 42.3416 40.3586L42.3401 40.3572Z"></path><path fill="#D1D1D1" d="M43.5663 42.4788C43.5419 42.4468 43.6238 42.3761 43.7374 42.3372C43.9659 42.2498 44.1126 41.982 44.6847 40.5639C45.1346 39.4608 45.4279 38.8614 45.5184 38.8919C45.5587 38.9002 45.747 39.286 45.9353 39.7356C46.9559 42.1638 47.0465 42.3372 47.3398 42.3372C47.4131 42.3372 47.4548 42.3844 47.4375 42.4316C47.38 42.5814 45.9842 42.5898 45.9842 42.4468C45.9842 42.3844 46.0575 42.3358 46.1481 42.3358C46.3522 42.3358 46.3608 42.0916 46.1639 41.7045L46.0244 41.4284L45.3459 41.4048L44.6761 41.3812L44.5122 41.7434C44.2994 42.2165 44.3081 42.2401 44.5769 42.3428C44.6991 42.39 44.7652 42.4455 44.7163 42.4538C44.5036 42.5162 43.5979 42.5329 43.5649 42.4774L43.5663 42.4788ZM45.8376 41.1065C45.9195 41.0357 45.4696 40.0505 45.356 40.0505C45.2496 40.0505 44.9808 40.5625 44.8744 40.9649C44.8256 41.1467 44.8342 41.1536 45.3071 41.1536C45.5774 41.1536 45.8131 41.1384 45.8376 41.1065Z"></path><path fill="#D1D1D1" d="M53.1961 42.3525C53.3672 42.1707 53.3758 42.1 53.3758 40.7443C53.3758 39.483 53.36 39.3179 53.2292 39.2305C53.107 39.1361 53.0984 39.1125 53.2134 39.0251C53.3039 38.9544 53.5972 38.9377 54.3073 38.9627C55.1727 39.0015 55.3207 39.0251 55.6557 39.2152C56.2192 39.5302 56.4808 40.02 56.4722 40.7207C56.4722 41.3673 56.2681 41.8238 55.8512 42.1319C55.3941 42.4635 55.1411 42.5176 54.0543 42.5259L53.0164 42.5343L53.1961 42.3525ZM55.2546 42.0139C55.6715 41.6587 55.7937 41.3826 55.7937 40.8151C55.8023 40.2323 55.6629 39.8604 55.3035 39.5385C55.0749 39.3332 54.9686 39.3026 54.4626 39.2777L53.8904 39.2457L53.9307 40.4918C53.9637 41.1855 53.9882 41.8641 53.9882 42.0056V42.2581H54.4784C54.9024 42.2581 55.0016 42.2262 55.2546 42.0139Z"></path><path fill="#D1D1D1" d="M56.8459 42.4385C56.8459 42.3913 56.9279 42.3358 57.0343 42.3206C57.2053 42.297 57.2139 42.2498 57.2714 41.3507C57.3045 40.8303 57.3117 40.1449 57.2801 39.8285C57.2398 39.3165 57.2154 39.2457 57.0184 39.1431C56.6835 38.9696 56.9207 38.9377 58.3165 38.9613L59.5829 38.9849L59.6074 39.4025C59.6318 39.8674 59.5427 39.9312 59.3702 39.5607L59.2552 39.2999L58.5364 39.2763L57.8177 39.2527L57.8421 39.8674L57.8666 40.4821H58.397C58.8714 40.4821 58.9361 40.4668 59.0094 40.3086C59.0496 40.2059 59.1402 40.1268 59.1977 40.1268C59.2796 40.1268 59.2954 40.2767 59.2796 40.7415C59.2638 41.0884 59.2221 41.341 59.1733 41.3326C59.133 41.3243 59.0827 41.2216 59.0669 41.112C59.0338 40.8595 58.7478 40.7415 58.2418 40.7734L57.8666 40.797L57.8421 41.2702C57.8263 41.531 57.8421 41.8613 57.8666 42.0028L57.9154 42.2554H58.5695C59.2552 42.2554 59.4032 42.1846 59.6721 41.735C59.8359 41.4672 59.892 41.6878 59.7698 42.1138L59.6476 42.5315H58.2504C57.2211 42.5315 56.8459 42.5079 56.8459 42.4371V42.4385Z"></path><path fill="#D1D1D1" d="M61.3798 41.4534C60.6122 39.6398 60.375 39.1833 60.2284 39.1833C60.122 39.1833 60.1134 39.1597 60.1953 39.0654C60.2686 38.9779 60.4656 38.9474 60.8983 38.9474C61.4948 38.9474 61.6903 39.0418 61.2979 39.1361C61.1829 39.168 61.0938 39.2305 61.0938 39.286C61.0938 39.4275 62.0253 41.5491 62.0899 41.5491C62.1633 41.5491 62.9726 39.5538 62.9726 39.3568C62.9726 39.2693 62.9151 39.175 62.8418 39.1514C62.5888 39.057 62.8331 38.946 63.3075 38.946C63.7891 38.946 63.9443 39.0487 63.618 39.1431C63.4225 39.2055 63.3233 39.4109 62.5557 41.2952C62.2696 41.9973 61.9922 42.5717 61.9433 42.5717C61.8944 42.5717 61.6414 42.0667 61.3798 41.452V41.4534Z"></path><path fill="#D1D1D1" d="M64.1154 42.4788C64.1154 42.4468 64.1887 42.3844 64.2792 42.3372C64.4345 42.2581 64.4431 42.1721 64.4431 40.7526C64.4431 39.483 64.4273 39.2471 64.3209 39.2152C64.2232 39.1764 64.2146 39.1361 64.2879 39.057C64.3612 38.9696 64.6559 38.946 65.5543 38.946H66.7302V39.2069C66.7302 39.3415 66.7546 39.5385 66.7791 39.6412C66.861 39.9173 66.6641 39.8466 66.5347 39.5468C66.4197 39.286 66.3952 39.2707 65.8892 39.2235C65.0483 39.1361 65.0555 39.1209 65.0311 39.8785L65.0066 40.5251H65.4968C65.7671 40.5251 66.0114 40.4932 66.0359 40.446C66.0603 40.4071 66.1581 40.3669 66.2486 40.3669C66.3881 40.3669 66.4039 40.4224 66.4039 40.8872C66.4039 41.266 66.3794 41.3992 66.3061 41.3756C66.2486 41.3521 66.1839 41.2341 66.1595 41.1079C66.1106 40.8636 65.9309 40.7929 65.3186 40.7693L65.0081 40.761L65.0325 41.4936L65.0569 42.2193L65.7354 42.2429C66.4053 42.2665 66.4211 42.2581 66.6339 42.0223C66.9444 41.6837 67.0579 41.7073 66.9602 42.1097C66.9113 42.2831 66.8294 42.4413 66.7805 42.4566C66.6008 42.519 64.1182 42.5356 64.1182 42.4801L64.1154 42.4788Z"></path><path fill="#D1D1D1" d="M67.3253 42.4704C67.3095 42.4385 67.3828 42.383 67.4892 42.3442C67.5956 42.3053 67.7091 42.2096 67.7422 42.1388C67.8155 41.957 67.7997 39.4025 67.7264 39.2929C67.6933 39.2457 67.5869 39.1819 67.4892 39.1514C67.0896 39.0334 67.3339 38.946 68.0771 38.946C68.6981 38.946 68.8534 38.9696 68.8534 39.057C68.8534 39.1278 68.7556 39.1833 68.6335 39.1986L68.4049 39.2222L68.3804 40.7443L68.3646 42.2581H69.0015C69.7116 42.2581 69.9157 42.1707 70.0796 41.785C70.2923 41.2799 70.3987 41.6115 70.219 42.211L70.1213 42.519L68.7484 42.5273C67.9894 42.5356 67.3512 42.5121 67.3268 42.4718L67.3253 42.4704Z"></path><path fill="#D1D1D1" d="M71.7111 42.4468C71.0571 42.1707 70.6488 41.5088 70.6488 40.7207C70.6488 40.1296 70.8443 39.712 71.2784 39.3331C72.1366 38.5839 73.4922 38.8364 73.9896 39.8382C74.2181 40.2878 74.2181 41.1398 74.0054 41.5879C73.8257 41.9584 73.4016 42.3691 73.0739 42.4871C72.7476 42.6133 72.0446 42.5898 71.7097 42.4482L71.7111 42.4468ZM72.9776 42.1624C73.3283 41.8946 73.508 41.4367 73.508 40.7596C73.508 39.8049 73.0839 39.175 72.4213 39.1597C71.76 39.1444 71.3762 39.594 71.3187 40.4765C71.2698 41.2258 71.4093 41.667 71.7931 42.0375C72.0461 42.2817 72.1611 42.3372 72.4227 42.3372C72.6354 42.3372 72.8309 42.2748 72.9776 42.1638V42.1624Z"></path><path fill="#D1D1D1" d="M74.5789 42.4385C74.6278 42.383 74.7184 42.3358 74.7744 42.3358C74.9541 42.3358 74.9786 42.1305 74.9786 40.7512V39.4109L74.7658 39.2221C74.4711 38.9543 74.6019 38.9224 75.6729 38.9613C76.636 38.9932 76.866 39.0959 77.1262 39.5996C77.2656 39.8604 77.2656 39.9312 77.1664 40.2226C77.0112 40.7041 76.6518 40.9164 75.9906 40.9164H75.4673V41.4214C75.4673 42.0528 75.5651 42.3122 75.8109 42.3511C76.2278 42.4066 75.8756 42.5093 75.2071 42.5245C74.6192 42.5398 74.5042 42.5245 74.5775 42.4371L74.5789 42.4385ZM76.3269 40.4834C76.4822 40.3419 76.5311 40.2073 76.5311 39.9478C76.5311 39.5066 76.2694 39.2457 75.8209 39.2305L75.5104 39.2221L75.486 39.7744C75.4529 40.5709 75.4946 40.6805 75.8454 40.6805C76.0409 40.6805 76.1961 40.618 76.3269 40.4834Z"></path><path fill="#D1D1D1" d="M77.5431 42.4788C77.5186 42.4468 77.5919 42.3844 77.6983 42.3442C77.9599 42.2415 78.0002 42.0209 78.0002 40.5542V39.3401L77.7874 39.2138C77.5014 39.0251 77.648 38.9294 78.1626 38.9613L78.5953 38.9849L79.1502 40.199C79.4607 40.8692 79.7381 41.445 79.7798 41.4839C79.8287 41.5311 79.8862 41.4686 79.9351 41.334C79.9839 41.2161 80.2456 40.625 80.5316 40.0325L81.0462 38.9446H81.5695C81.9533 38.9446 82.0927 38.9682 82.0683 39.039C82.0439 39.0945 81.9461 39.1569 81.8311 39.1805L81.6356 39.2277L81.6112 40.6C81.5867 42.1527 81.6112 42.3344 81.8398 42.3344C81.9217 42.3344 82.0194 42.3733 82.0439 42.4135C82.0769 42.4607 81.88 42.4926 81.5206 42.4926C81.2101 42.4926 80.8838 42.5162 80.8019 42.5481C80.6797 42.587 80.6797 42.5634 80.8421 42.3983C81.0132 42.2165 81.0218 42.1374 81.0218 41.1217C81.0218 40.3253 80.9974 40.0422 80.9241 40.0658C80.8752 40.0811 80.5805 40.6486 80.2873 41.3188C79.9854 41.9889 79.7079 42.5245 79.6749 42.5176C79.6346 42.5093 79.3399 41.9418 79.0208 41.2646C78.6945 40.5792 78.384 40.0033 78.3351 39.9881C78.2704 39.9645 78.2446 40.2323 78.2446 40.8636C78.2446 42.0306 78.2934 42.2512 78.5637 42.3539C78.6787 42.401 78.7434 42.4482 78.6945 42.4566C78.4818 42.519 77.5761 42.5356 77.5431 42.4801V42.4788Z"></path><path fill="#D1D1D1" d="M82.3616 42.5023C82.2796 42.4232 82.3371 42.3372 82.4766 42.3372C82.7871 42.3372 82.8201 42.1957 82.8201 40.847C82.8201 40.1213 82.7957 39.4594 82.7712 39.3651C82.7468 39.2707 82.6318 39.1764 82.5182 39.1444C82.3788 39.1125 82.3386 39.0654 82.3874 39.0182C82.4363 38.971 82.9998 38.9557 83.7674 38.9627L85.0655 38.9863L85.0899 39.4039C85.1144 39.8688 85.0252 39.9326 84.8527 39.5621C84.7464 39.3179 84.6975 39.2943 84.2231 39.2388C83.9371 39.1999 83.6194 39.1916 83.5044 39.2152C83.3247 39.2624 83.3089 39.3026 83.3089 39.7675C83.3089 40.5001 83.3247 40.5237 83.8882 40.5237C84.2806 40.5237 84.3784 40.5001 84.4517 40.3655C84.6156 40.0658 84.6961 40.2073 84.6961 40.7998C84.6961 41.1384 84.663 41.3909 84.6141 41.3909C84.5739 41.3909 84.5322 41.3285 84.5322 41.2494C84.5322 40.9732 84.3439 40.847 83.8623 40.7915L83.3879 40.736V41.5005V42.2567H84.042C84.7363 42.2567 84.8829 42.186 85.1532 41.7364C85.3084 41.4839 85.3904 41.6892 85.2754 42.0833C85.2265 42.2803 85.169 42.4538 85.1604 42.4621C85.1273 42.494 82.3917 42.5329 82.3587 42.501L82.3616 42.5023Z"></path><path fill="#D1D1D1" d="M85.6779 42.5023C85.6779 42.4871 85.7685 42.3913 85.882 42.29C86.0861 42.1083 86.0861 42.093 86.0861 40.7679C86.0861 39.3484 86.0617 39.2624 85.6779 39.1444C85.3918 39.057 85.5873 38.9474 86.0373 38.9474H86.47L87.4748 40.1768C88.0225 40.847 88.504 41.3756 88.5443 41.3354C88.5773 41.3035 88.5845 40.8151 88.5601 40.2628C88.5112 39.2846 88.5026 39.2457 88.3157 39.175C87.9808 39.0487 88.1935 38.946 88.7901 38.946C89.3866 38.946 89.5175 39.0334 89.1092 39.175L88.8648 39.2541V40.9094C88.8648 41.871 88.8318 42.5731 88.7915 42.5731C88.7513 42.5731 88.2438 42.0056 87.6731 41.3118C87.101 40.618 86.5864 40.0505 86.5217 40.0505C86.4311 40.0505 86.4153 40.2559 86.4311 41.1703C86.4556 42.2262 86.4642 42.2984 86.6195 42.322C87.0277 42.3927 86.8724 42.4871 86.3003 42.5107C85.9568 42.5259 85.6793 42.519 85.6793 42.5023H85.6779Z"></path><path fill="#D1D1D1" d="M90.6272 42.3289C90.8227 42.1319 90.8227 42.1083 90.8227 40.7055C90.8227 39.6329 90.7983 39.2707 90.7249 39.2388C90.6674 39.2235 90.4547 39.2305 90.2506 39.2541C89.9243 39.2929 89.8754 39.3332 89.8006 39.5621C89.6856 39.9409 89.5965 39.8701 89.5965 39.3803V38.946H91.1073H92.6181V39.3803C92.6181 39.8771 92.5534 39.9243 92.3738 39.5538C92.276 39.3484 92.1941 39.2929 91.8922 39.2457C91.6967 39.2138 91.4998 39.2069 91.4681 39.2305C91.4279 39.2541 91.3948 39.9243 91.3948 40.7124C91.3948 42.211 91.4106 42.2817 91.7456 42.3442C91.8275 42.3594 91.8922 42.4149 91.8922 42.4552C91.8836 42.5023 91.5817 42.5343 91.1576 42.5343H90.4231L90.6272 42.3289Z"></path><path fill="#D1D1D1" d="M29.1999 34.7209C28.4079 33.751 27.7222 32.9545 27.6805 32.9545C27.6403 32.9545 27.6072 33.6095 27.6072 34.3976C27.6072 35.6991 27.623 35.8643 27.7538 35.9739C27.8358 36.053 27.9824 36.1085 28.0801 36.1085C28.2023 36.1085 28.2598 36.1556 28.2598 36.2666C28.2598 36.4165 28.2023 36.4248 27.4016 36.4248C26.6009 36.4248 26.5434 36.4165 26.5434 36.2666C26.5434 36.164 26.6009 36.1085 26.6901 36.1085C26.7806 36.1085 26.91 36.0377 27.0006 35.9433C27.1472 35.7852 27.1558 35.6436 27.1472 33.9966C27.1314 32.2538 27.1314 32.215 26.9517 32.0734C26.8539 31.9943 26.6987 31.9319 26.6168 31.9319C26.519 31.9319 26.4615 31.8764 26.4615 31.7737C26.4615 31.6239 26.519 31.6155 27.3197 31.6155H28.1693L28.7486 32.3482C29.0677 32.7422 29.5737 33.3888 29.8756 33.7677L30.4233 34.4614L30.4477 33.4527C30.4721 32.2857 30.4074 32.0415 30.0236 31.9472C29.8842 31.9083 29.7706 31.8292 29.7706 31.7654C29.7706 31.678 29.9345 31.6544 30.6288 31.6544C31.3476 31.6544 31.487 31.678 31.5114 31.7807C31.5273 31.8681 31.4539 31.9222 31.2829 31.9541C31.119 31.993 31.0054 32.0721 30.9566 32.2066C30.9077 32.3246 30.8746 33.2945 30.8746 34.4143C30.8746 36.0141 30.8502 36.4165 30.7683 36.4484C30.6949 36.472 30.1314 35.8573 29.1999 34.7223V34.7209Z"></path><path fill="#D1D1D1" d="M35.2518 36.2583C35.2274 36.1237 35.2029 35.6908 35.2029 35.3037C35.2029 34.689 35.2187 34.6016 35.3337 34.6252C35.4157 34.6404 35.5134 34.7903 35.5709 34.9721C35.6198 35.1455 35.7506 35.4064 35.857 35.5396C36.0697 35.8157 36.616 36.1071 36.9265 36.1071C37.2126 36.1071 37.6366 35.831 37.7027 35.602C37.7933 35.2468 37.5561 34.9873 36.7137 34.5378C35.7664 34.0327 35.4229 33.7177 35.3007 33.2612C34.9816 32.0554 36.1589 31.1799 37.4081 31.7002L37.8407 31.882L37.9629 31.7085C38.0276 31.6142 38.134 31.5351 38.1915 31.5351C38.2821 31.5351 38.3065 31.7085 38.3065 32.3634C38.3065 32.9865 38.2821 33.1918 38.2001 33.1918C38.1426 33.1918 38.0535 33.0739 37.996 32.9393C37.9471 32.7978 37.7919 32.5452 37.6524 32.387C37.1047 31.7488 36.0999 31.8195 36.0999 32.4897C36.0999 32.813 36.3616 33.042 37.1867 33.4277C38.4445 34.0188 38.8686 34.6973 38.5092 35.541C38.1412 36.3846 37.2183 36.7079 36.1574 36.3527C35.7075 36.2028 35.7003 36.2028 35.5609 36.3527C35.3654 36.558 35.3165 36.5414 35.2504 36.2583H35.2518Z"></path><path fill="#D1D1D1" d="M63.7402 34.3574C63.2098 33.1752 62.7023 32.1414 62.629 32.0707C62.5471 31.9916 62.4091 31.9291 62.3099 31.9291C62.1949 31.9291 62.1546 31.8903 62.1704 31.7945C62.1949 31.6683 62.3343 31.653 63.4038 31.6294C64.5639 31.6142 64.6041 31.6142 64.6041 31.771C64.6041 31.8736 64.5466 31.9291 64.4489 31.9291C64.2203 31.9291 64.032 32.0082 64.032 32.1178C64.0234 32.2441 65.1101 34.6876 65.1676 34.6876C65.2409 34.6876 66.2371 32.3773 66.2371 32.2122C66.2371 32.1331 66.1221 32.0304 65.9424 31.9597C65.4436 31.7626 65.6406 31.6516 66.5462 31.628C67.3224 31.6045 67.3799 31.6197 67.3799 31.7626C67.3799 31.857 67.3066 31.9278 67.1844 31.9597C66.9473 32.0152 66.7431 32.283 66.5059 32.8352C65.9424 34.1603 64.9779 36.3194 64.9046 36.4068C64.8643 36.454 64.7982 36.5011 64.7651 36.5011C64.7321 36.5011 64.2749 35.5312 63.7359 34.3574H63.7402Z"></path><path fill="#D1D1D1" d="M76.3025 36.2653C75.3638 35.8074 74.9469 35.1302 74.9383 34.0577C74.9383 33.4818 74.9714 33.325 75.1669 32.9379C75.5838 32.1095 76.3916 31.6211 77.4295 31.5587C77.9527 31.5198 78.1152 31.5434 78.4429 31.6849C78.9331 31.8903 79.0395 31.8903 79.1042 31.6933C79.1286 31.6058 79.2106 31.5351 79.2752 31.5351C79.3658 31.5351 79.3902 31.6849 79.4061 32.2053C79.4147 32.5757 79.4219 32.9545 79.4219 33.0489C79.4305 33.3403 79.1775 33.3167 79.0711 33.0253C78.9489 32.6701 78.6054 32.2691 78.3279 32.1262C78.0261 31.9763 77.4051 31.9763 77.1104 32.1178C76.7668 32.2913 76.383 32.7561 76.2852 33.1266C76.2277 33.3084 76.2033 33.7579 76.2206 34.1284C76.2608 35.2718 76.7266 35.8781 77.6178 35.9975C77.9283 36.0446 78.0749 36.0127 78.4429 35.8393C78.6959 35.7213 78.9662 35.5396 79.0553 35.43C79.1947 35.2648 79.4722 35.1622 79.4722 35.2801C79.4722 35.43 79.1861 35.8157 78.9001 36.0446C78.4918 36.3832 78.0994 36.5025 77.372 36.5025C76.8976 36.5025 76.7179 36.4637 76.3025 36.2667V36.2653Z"></path><path fill="#D1D1D1" d="M5.71694 36.2736C5.71694 36.1862 5.79025 36.0918 5.88081 36.0682C6.1755 35.9808 6.41988 35.5396 7.29388 33.5456C7.94794 32.0707 8.19231 31.5753 8.29869 31.5753C8.39644 31.5753 8.51863 31.7723 8.71556 32.2455C9.21438 33.4443 10.2178 35.6672 10.3414 35.849C10.4061 35.9517 10.5455 36.046 10.6605 36.0779C10.7913 36.1098 10.8646 36.1806 10.8646 36.275C10.8646 36.4248 10.7999 36.4248 9.66431 36.4096C8.67531 36.3943 8.45538 36.3624 8.45538 36.275C8.45538 36.2125 8.57038 36.1334 8.717 36.0932C8.86363 36.0543 9.00306 35.9905 9.0275 35.9517C9.06056 35.9045 8.98725 35.6755 8.87225 35.4397L8.66813 35.0054H7.93356C7.11706 35.0054 7.06819 35.0373 6.85544 35.6284C6.76488 35.8642 6.7735 35.9128 6.90431 36.0072C6.99488 36.0627 7.1415 36.1098 7.24788 36.1098C7.37869 36.1098 7.43619 36.157 7.43619 36.268C7.43619 36.4179 7.37869 36.4262 6.578 36.4262C5.78594 36.4262 5.71981 36.4179 5.71981 36.2764L5.71694 36.2736ZM8.47694 34.5475C8.46831 34.5155 8.34613 34.2325 8.21531 33.9161C8.0845 33.6011 7.93788 33.3569 7.889 33.3722C7.81569 33.3958 7.34994 34.3976 7.34994 34.5475C7.34994 34.5794 7.61156 34.6099 7.92925 34.6099C8.24838 34.6099 8.49275 34.5863 8.47694 34.5475Z"></path><path fill="#D1D1D1" d="M11.1895 36.2653C11.1895 36.1626 11.247 36.1071 11.3534 36.1071C11.4439 36.1071 11.5906 36.0363 11.6883 35.942C11.8436 35.7921 11.8522 35.713 11.8278 33.9716C11.8033 32.276 11.7947 32.1428 11.6481 32.0401C11.5575 31.9777 11.3951 31.9291 11.2887 31.9291C11.1493 31.9291 11.1004 31.8903 11.1248 31.7945C11.1493 31.6683 11.2887 31.653 12.5781 31.653C14.1795 31.653 14.5878 31.7404 15.134 32.1734C16.008 32.8671 16.1963 34.5544 15.5092 35.4771C14.9701 36.1945 14.2356 36.4234 12.4387 36.4234C11.2456 36.4234 11.1895 36.4151 11.1895 36.2653ZM13.9668 35.7768C14.4081 35.4855 14.5705 35.0747 14.6122 34.2242C14.6366 33.3958 14.5475 32.9712 14.2442 32.5757C13.9912 32.2608 13.6563 32.0873 13.2724 32.0873H12.9864V34.0188V35.9503H13.3458C13.5743 35.9503 13.7871 35.8878 13.9668 35.7768Z"></path><path fill="#D1D1D1" d="M16.5801 36.2653C16.5801 36.1626 16.6376 36.1071 16.744 36.1071C16.8346 36.1071 16.9812 36.0363 17.0703 35.9489C17.2256 35.799 17.2342 35.688 17.2342 34.0174C17.2342 32.3454 17.2256 32.2358 17.0703 32.0859C16.9798 31.9985 16.8331 31.9278 16.744 31.9278C16.6376 31.9278 16.5801 31.8723 16.5801 31.7696C16.5801 31.6197 16.6376 31.6114 17.5433 31.6114H18.5064L19.1101 33.0378C19.4451 33.819 19.7398 34.4725 19.7714 34.4961C19.8044 34.5114 20.1063 33.8814 20.4413 33.085L21.0623 31.6502L22.0426 31.6267C22.9899 31.6114 23.0316 31.6114 23.0316 31.7682C23.0316 31.8792 22.9741 31.9264 22.8606 31.9264C22.77 31.9264 22.6234 31.9652 22.5343 32.0055C22.3876 32.0845 22.379 32.1942 22.379 33.9758C22.379 36.0183 22.3948 36.1043 22.8361 36.1043C22.9756 36.1043 23.0316 36.1432 23.0316 36.2625C23.0316 36.4123 22.9741 36.4207 21.7652 36.4207C20.5563 36.4207 20.4988 36.4123 20.4988 36.2625C20.4988 36.1445 20.5563 36.1043 20.7359 36.1043C21.1859 36.1043 21.2348 35.9225 21.2348 34.3546C21.2348 33.0697 21.2261 32.9518 21.0953 32.9518C20.9803 32.9518 20.7934 33.3375 20.2702 34.5919C19.9022 35.491 19.5601 36.2791 19.5184 36.3416C19.4034 36.515 19.3387 36.404 18.9304 35.4355C17.9673 33.1571 17.8365 32.8727 17.7459 32.8727C17.664 32.8727 17.6396 33.2196 17.6396 34.331C17.6396 35.6867 17.6482 35.7977 17.8034 35.9475C17.894 36.0349 18.0406 36.1057 18.1298 36.1057C18.2361 36.1057 18.2936 36.1612 18.2936 36.2639C18.2936 36.4137 18.2361 36.4221 17.4354 36.4221C16.6348 36.4221 16.5773 36.4137 16.5773 36.2639L16.5801 36.2653Z"></path><path fill="#D1D1D1" d="M23.5233 36.2653C23.5233 36.1543 23.5808 36.1071 23.7116 36.1071C23.8179 36.1071 23.9646 36.0446 24.0379 35.9656C24.1601 35.8393 24.1773 35.5798 24.1773 33.9952C24.1773 32.2053 24.1773 32.1734 23.9976 32.0554C23.8999 31.9846 23.7533 31.9291 23.6713 31.9291C23.5808 31.9291 23.5247 31.8667 23.5247 31.771C23.5247 31.6211 23.5822 31.6128 24.7911 31.6128C25.9598 31.6128 26.0576 31.6211 26.0576 31.7543C26.0576 31.857 25.967 31.9194 25.7557 31.9749C25.5027 32.0304 25.4452 32.0929 25.3805 32.3218C25.2986 32.6299 25.3474 35.6728 25.4452 35.8851C25.4782 35.9642 25.6249 36.0433 25.7801 36.0738C25.9756 36.1057 26.0576 36.1681 26.0576 36.2708C26.0576 36.4123 25.9756 36.4207 24.7911 36.4207C23.5822 36.4207 23.5247 36.4123 23.5247 36.2625L23.5233 36.2653Z"></path><path fill="#D1D1D1" d="M31.9355 36.2653C31.9355 36.1543 31.993 36.1071 32.1238 36.1071C32.2216 36.1071 32.3941 36.0516 32.4918 35.9808C32.6715 35.8629 32.6715 35.831 32.6715 34.0174C32.6715 32.2039 32.6715 32.172 32.4918 32.054C32.3941 31.9833 32.2474 31.9278 32.1655 31.9278C32.0749 31.9278 32.0189 31.8653 32.0189 31.7696C32.0189 31.6114 32.0591 31.6114 33.2609 31.628C34.3721 31.6516 34.5101 31.6669 34.5345 31.7932C34.5589 31.8875 34.5101 31.9278 34.3706 31.9278C34.2643 31.9278 34.0932 31.9833 33.9954 32.054C33.8158 32.172 33.8158 32.2039 33.8158 33.9855C33.8158 35.688 33.8244 35.799 33.9796 35.9489C34.0702 36.0363 34.2168 36.1071 34.3059 36.1071C34.4123 36.1071 34.4698 36.1626 34.4698 36.2653C34.4698 36.4151 34.4123 36.4234 33.2034 36.4234C31.9944 36.4234 31.9369 36.4151 31.9369 36.2653H31.9355Z"></path><path fill="#D1D1D1" d="M40.1034 36.2653C40.1034 36.1473 40.1609 36.1071 40.3075 36.1071C40.4225 36.1071 40.5936 36.028 40.6827 35.942C40.8538 35.7768 40.8624 35.7213 40.8049 34.893C40.7804 34.4115 40.756 33.5845 40.756 33.0558V32.0859H40.4052C39.9553 32.0859 39.744 32.2358 39.5643 32.677C39.3358 33.2681 39.2049 33.1419 39.2049 32.3218V31.6128H41.3698H43.5347V32.3218C43.5347 33.1419 43.4039 33.2681 43.1753 32.677C42.9956 32.2358 42.7829 32.0859 42.3344 32.0859H41.9836V33.9702C41.9836 36.0516 41.9994 36.1071 42.4824 36.1071C42.6621 36.1071 42.7196 36.1459 42.7196 36.2653C42.7196 36.4151 42.6621 36.4234 41.4129 36.4234C40.1638 36.4234 40.1063 36.4151 40.1063 36.2653H40.1034Z"></path><path fill="#D1D1D1" d="M44.1629 36.3763C44.0407 36.2583 44.114 36.1085 44.2937 36.1085C44.4001 36.1085 44.5553 36.0613 44.6444 35.9975C44.7911 35.8865 44.7997 35.7921 44.7753 34.0812C44.7594 33.0961 44.7264 32.2205 44.7106 32.1498C44.6861 32.0707 44.5467 31.9846 44.4087 31.9444C44.2621 31.9056 44.1471 31.8265 44.1471 31.7626C44.1471 31.6683 44.4087 31.6516 45.6996 31.6516C47.3326 31.6516 47.6186 31.6988 48.0111 32.0374C48.6723 32.6049 48.5415 33.6539 47.7825 33.9605C47.6028 34.0396 47.4562 34.1187 47.4562 34.1492C47.4562 34.1728 47.7423 34.5988 48.0858 35.0872C48.5099 35.6866 48.7959 36.0016 48.944 36.0571C49.0834 36.1043 49.1726 36.1987 49.1726 36.2861C49.1726 36.4123 49.0992 36.4207 48.4207 36.404L47.6776 36.3804L47.0321 35.4744C46.2645 34.3948 46.0934 34.1895 45.9871 34.2519C45.8649 34.3227 45.8893 35.7338 46.0115 35.892C46.0604 35.9711 46.2242 36.0571 46.3551 36.089C46.4945 36.1279 46.5994 36.207 46.5994 36.2708C46.5994 36.3582 46.3795 36.3888 45.4063 36.4054C44.7522 36.4137 44.1974 36.3971 44.1643 36.3735L44.1629 36.3763ZM46.9732 33.5928C47.2679 33.3084 47.2995 32.82 47.0465 32.4259C46.8826 32.165 46.6958 32.079 46.2128 32.0637L45.9425 32.0485L45.9181 32.9393L45.8936 33.8218H46.3105C46.6699 33.8218 46.7676 33.7829 46.9718 33.5928H46.9732Z"></path><path fill="#D1D1D1" d="M49.3321 36.2819C49.3321 36.1945 49.4385 36.0932 49.6024 36.021C49.8798 35.9031 49.9129 35.8476 51.2526 32.7575C51.6364 31.875 51.8003 31.5753 51.9067 31.5753C52.0131 31.5753 52.2172 31.961 52.7404 33.1516C53.8344 35.6825 53.9738 35.942 54.3001 36.0765C54.4554 36.132 54.5617 36.2264 54.5445 36.2819C54.5114 36.361 54.1851 36.3929 53.3111 36.4082C52.1511 36.4234 52.1108 36.4234 52.1108 36.2666C52.1108 36.164 52.1683 36.1085 52.2574 36.1085C52.3394 36.1085 52.4702 36.0613 52.5593 36.0058C52.6987 35.9031 52.6987 35.8795 52.4946 35.4535L52.2819 35.004H51.5473C50.7308 35.004 50.6158 35.0747 50.5094 35.6117C50.4519 35.9267 50.5741 36.1085 50.853 36.1085C50.9924 36.1085 51.0485 36.1556 51.0485 36.2666C51.0485 36.4165 50.991 36.4248 50.1903 36.4248C49.4141 36.4248 49.3321 36.4096 49.3321 36.2833V36.2819ZM52.1094 34.5627C52.1094 34.4045 51.5861 33.3486 51.5128 33.3486C51.4309 33.3486 50.9651 34.3893 50.9651 34.5544C50.9651 34.5863 51.2267 34.6099 51.5372 34.6099C51.8564 34.6099 52.1094 34.5863 52.1094 34.5627Z"></path><path fill="#D1D1D1" d="M55.2949 36.2653C55.2949 36.1473 55.3524 36.1071 55.499 36.1071C55.614 36.1071 55.7764 36.0363 55.867 35.9489C56.0223 35.799 56.0309 35.688 56.0309 33.9855C56.0309 31.9597 56.0309 31.9597 55.4832 32.054C55.0908 32.1165 54.7558 32.4162 54.6825 32.7631C54.6581 32.9212 54.5848 33.0309 54.5186 33.0309C54.4209 33.0309 54.3964 32.8893 54.3964 32.3218V31.6128H56.5613H58.7262V32.3218C58.7262 33.1266 58.604 33.2681 58.3999 32.7006C58.2533 32.3066 57.9758 32.1012 57.5417 32.0693L57.2154 32.0457L57.1909 33.9383C57.1751 35.7907 57.1751 35.831 57.3462 35.9725C57.4439 36.0433 57.6078 36.1071 57.7214 36.1071C57.868 36.1071 57.9169 36.1459 57.8924 36.2486C57.868 36.3666 57.7286 36.3832 56.5771 36.4068C55.3351 36.4221 55.2949 36.4221 55.2949 36.2653Z"></path><path fill="#D1D1D1" d="M59.2969 36.2653C59.2969 36.1473 59.3544 36.1071 59.501 36.1071C59.616 36.1071 59.7784 36.0363 59.869 35.9489C60.0243 35.799 60.0329 35.688 60.0329 34.0174C60.0329 32.3454 60.0243 32.2358 59.869 32.0859C59.7784 31.9985 59.6074 31.9278 59.4938 31.9278C59.3386 31.9278 59.2897 31.8958 59.3141 31.7932C59.3386 31.6669 59.4694 31.6516 60.605 31.6516C61.7406 31.6516 61.8714 31.6669 61.8959 31.7932C61.9203 31.8875 61.8714 31.9278 61.732 31.9278C61.6256 31.9278 61.4546 31.9833 61.3568 32.054C61.1771 32.172 61.1771 32.2039 61.1771 34.0091C61.1771 36.0044 61.1685 35.9725 61.6429 36.0988C61.7651 36.1307 61.8714 36.2098 61.8714 36.2722C61.8714 36.3596 61.6343 36.3901 60.5892 36.4068C59.34 36.4221 59.2983 36.4221 59.2983 36.2653H59.2969Z"></path><path fill="#D1D1D1" d="M67.7091 36.2653C67.7091 36.1543 67.7666 36.1071 67.8802 36.1071C67.9708 36.1071 68.1174 36.0682 68.2065 36.028C68.3531 35.9489 68.3618 35.8393 68.3618 34.0577C68.3618 32.1969 68.3618 32.1734 68.1821 32.0554C68.0843 31.9846 67.9377 31.9291 67.8558 31.9291C67.7652 31.9291 67.7091 31.8667 67.7091 31.771C67.7091 31.6211 67.7666 31.6128 69.6613 31.6128H71.6048L71.6623 32.2594C71.7198 32.8907 71.6623 33.1113 71.4739 33.0003C71.4251 32.9684 71.3834 32.8893 71.3834 32.8269C71.3834 32.6063 71.1548 32.2746 70.9334 32.1803C70.8184 32.1248 70.4433 32.0859 70.1083 32.0859H69.4959L69.5204 32.8977L69.5448 33.7024L69.7648 33.726C70.0753 33.7579 70.3685 33.4582 70.4433 33.0406C70.4763 32.8435 70.541 32.7256 70.5899 32.7409C70.6546 32.7561 70.6963 33.1502 70.7121 33.9633C70.7279 34.9651 70.7121 35.1622 70.6143 35.1622C70.5496 35.1622 70.4749 35.0512 70.4433 34.9096C70.3613 34.5072 70.2391 34.3102 69.9861 34.2158C69.5621 34.0424 69.5046 34.1284 69.5046 34.9568C69.5046 35.3661 69.529 35.7533 69.5534 35.824C69.6181 35.9975 70.7954 36.0058 71.1376 35.8323C71.4236 35.6908 71.6924 35.3356 71.7586 35.0123C71.7988 34.8472 71.8563 34.7681 71.9627 34.7681C72.151 34.7681 72.151 34.8305 71.9871 35.7227L71.8477 36.4248H69.7806C67.7638 36.4248 67.7063 36.4165 67.7063 36.2667L67.7091 36.2653Z"></path><path fill="#D1D1D1" d="M79.879 36.2889C79.879 36.2098 79.994 36.1001 80.1493 36.028C80.4684 35.8865 80.6639 35.5229 81.6514 33.2681C82.3213 31.7307 82.4435 31.5101 82.5988 31.5573C82.6318 31.5656 82.9495 32.2275 83.3017 33.0323C83.6453 33.837 84.0363 34.7348 84.1757 35.0345C84.4043 35.5632 84.7306 35.9725 85.0655 36.1543C85.4249 36.3596 85.0813 36.4304 83.8724 36.4068C82.9409 36.3915 82.6965 36.3596 82.6965 36.2722C82.6965 36.2167 82.8273 36.1223 82.9826 36.0752C83.3089 35.9725 83.3261 35.8074 83.0803 35.319L82.9409 35.0428H82.1316H81.3309L81.167 35.4286C81.0204 35.7907 81.0204 35.8226 81.1512 35.9572C81.2245 36.0446 81.3798 36.1071 81.4861 36.1071C81.6328 36.1071 81.6816 36.1459 81.6572 36.2486C81.6328 36.3666 81.5106 36.3832 80.7501 36.4068C79.9581 36.4221 79.8761 36.4151 79.8761 36.2889H79.879ZM82.7138 34.5156C82.3874 33.7191 82.1991 33.3486 82.1344 33.3486C82.0525 33.3486 81.5868 34.3893 81.5954 34.5544C81.5954 34.5863 81.857 34.6099 82.1747 34.6099C82.6074 34.6099 82.7468 34.5863 82.7138 34.5156Z"></path><path fill="#D1D1D1" d="M85.4335 36.2653C85.4335 36.1543 85.491 36.1071 85.6218 36.1071C85.7282 36.1071 85.8834 36.0599 85.9726 35.9961C86.1192 35.8851 86.1278 35.7907 86.1034 34.0008C86.0789 31.9749 86.0631 31.9278 85.6218 31.9278C85.4824 31.9278 85.4335 31.8806 85.4335 31.7626C85.4335 31.5975 85.4579 31.5975 86.8868 31.628C88.2021 31.6516 88.3645 31.6669 88.7167 31.8334C89.5749 32.2427 89.7618 33.3 89.0675 33.8911C88.7325 34.1756 88.3329 34.2935 87.6947 34.2935H87.2131L87.2462 35.09C87.2706 35.9489 87.3612 36.1071 87.7766 36.1071C87.9074 36.1071 87.9649 36.1543 87.9649 36.2653C87.9649 36.4151 87.9074 36.4234 86.6985 36.4234C85.4896 36.4234 85.4321 36.4151 85.4321 36.2653H85.4335ZM88.0469 33.6247C88.2179 33.4513 88.251 33.3486 88.251 32.9545C88.251 32.5841 88.2179 32.4495 88.0799 32.3232C87.9089 32.1581 87.3612 31.9846 87.2792 32.0707C87.2059 32.1331 87.2217 33.7899 87.2879 33.8523C87.4029 33.955 87.8356 33.8204 88.0469 33.6234V33.6247Z"></path><path fill="#D1D1D1" d="M90.0479 36.3444C89.9746 36.2334 90.0723 36.1085 90.2362 36.1085C90.3181 36.1085 90.4648 36.053 90.5625 35.9822C90.7422 35.8643 90.7422 35.8323 90.7422 34.0743C90.7422 33.0891 90.7019 32.2289 90.6603 32.1664C90.62 32.104 90.4648 32.0082 90.3167 31.9611C90.1701 31.9139 90.0464 31.8265 90.0464 31.764C90.0464 31.6766 90.275 31.653 91.3129 31.653C92.4485 31.653 92.5793 31.6683 92.6038 31.7945C92.6282 31.8889 92.5793 31.9291 92.4399 31.9291C92.3335 31.9291 92.1624 31.9846 92.0647 32.0554C91.885 32.1734 91.885 32.2053 91.885 33.9869C91.885 35.6894 91.8936 35.8004 92.0489 35.9503C92.1394 36.0377 92.3019 36.1085 92.4169 36.1085C92.5635 36.1085 92.621 36.1473 92.621 36.2667C92.621 36.4165 92.5635 36.4248 91.3632 36.4248C90.6042 36.4248 90.0809 36.3929 90.0479 36.3457V36.3444Z"></path><path fill="#D1D1D1" d="M94.0916 36.2653C94.0916 36.1709 94.1491 36.1071 94.2382 36.1071C94.3201 36.1071 94.4668 36.0516 94.5645 35.9808C94.7442 35.8629 94.7442 35.8393 94.7442 33.9702V32.0859H94.3446C93.863 32.0859 93.6503 32.2358 93.495 32.677C93.4303 32.8505 93.3311 32.992 93.2664 32.992C93.1759 32.992 93.1443 32.8269 93.127 32.3066L93.1026 31.6128H95.3163H97.5214V32.3301C97.5214 32.9532 97.5056 33.0392 97.382 33.0156C97.3087 33.0003 97.2181 32.881 97.1779 32.7478C97.0715 32.3621 96.7538 32.1095 96.3283 32.0693C96.1242 32.054 95.9445 32.061 95.9201 32.0776C95.8468 32.1484 95.887 35.6339 95.9689 35.8226C96.0178 35.9642 96.1242 36.0349 96.3369 36.0752C96.5411 36.1071 96.623 36.1626 96.623 36.2722C96.623 36.4137 96.5411 36.4221 95.3566 36.4221C94.1476 36.4221 94.0901 36.4137 94.0901 36.2639L94.0916 36.2653Z"></path><path fill="#D1D1D1" d="M97.3576 36.2653C97.3576 36.1778 97.4064 36.1071 97.4726 36.1071C97.7917 36.1071 98.0361 35.6978 98.9431 33.6636C99.4577 32.4967 99.9149 31.567 99.981 31.5503C100.063 31.542 100.381 32.1733 100.977 33.529C101.467 34.6252 101.94 35.6339 102.022 35.7685C102.12 35.9184 102.284 36.0363 102.43 36.0682C102.602 36.1071 102.668 36.1626 102.65 36.25C102.626 36.3679 102.462 36.3846 101.377 36.4082C100.176 36.4234 100.135 36.4234 100.135 36.2667C100.135 36.164 100.192 36.1085 100.29 36.1085C100.731 36.1085 100.796 35.935 100.576 35.3994C100.421 35.0206 100.323 34.9901 99.4405 35.0206L98.7864 35.0442L98.6398 35.3522C98.4357 35.7699 98.4846 35.9753 98.8109 36.0696C98.9819 36.1168 99.0725 36.1876 99.0725 36.2819C99.0725 36.4082 98.9819 36.4234 98.2143 36.4234C97.4136 36.4234 97.3561 36.4151 97.3561 36.2653H97.3576ZM100.102 34.4281C100.028 34.1284 99.6518 33.3486 99.5871 33.3486C99.5296 33.3486 99.3672 33.6872 99.0078 34.5475C98.992 34.5794 99.245 34.6099 99.5627 34.6099C100.135 34.6099 100.151 34.6016 100.102 34.4281Z"></path><path fill="#D1D1D1" d="M102.961 36.2972C102.936 36.2264 102.912 36.1626 102.912 36.1473C102.912 36.139 103.043 36.1001 103.198 36.0766C103.418 36.0377 103.517 35.9656 103.573 35.8088C103.622 35.6825 103.647 34.9179 103.631 33.8773C103.606 32.2774 103.598 32.1428 103.451 32.0401C103.361 31.9777 103.207 31.9291 103.1 31.9291C102.97 31.9291 102.912 31.882 102.912 31.771C102.912 31.6211 102.97 31.6128 104.178 31.6128C105.387 31.6128 105.445 31.6211 105.445 31.771C105.445 31.882 105.387 31.9291 105.257 31.9291C105.15 31.9291 105.004 31.9763 104.93 32.0318C104.799 32.1192 104.791 32.3079 104.808 34.0188L104.833 35.9114L105.462 35.935C106.369 35.9669 106.785 35.7061 106.973 35.0054C107.03 34.8 107.095 34.7209 107.243 34.7056C107.407 34.6821 107.423 34.6973 107.383 34.9027C107.358 35.0206 107.292 35.4147 107.236 35.7782L107.138 36.4248H105.071C103.274 36.4248 103.004 36.4096 102.964 36.2986L102.961 36.2972Z"></path><path fill="#D1D1D1" d="M43.746 27.4598C43.5261 27.0422 43.1164 26.0015 43.1581 25.9543C43.1825 25.9307 43.493 25.9626 43.8366 26.0251C44.6459 26.1666 46.1078 26.1666 46.8424 26.0251C49.0964 25.5991 51.2613 24.1408 52.4946 22.2176C52.6585 21.9651 52.8296 21.7597 52.8784 21.7597C53.0581 21.7597 53.4175 21.9567 53.4175 22.0594C53.4175 22.2176 52.5679 23.4858 51.9958 24.1727C50.1745 26.365 47.8961 27.4598 44.8241 27.6416L43.8768 27.6971L43.746 27.4612V27.4598Z"></path><path fill="#D1D1D1" d="M80.615 27.0963C80.615 27.0255 80.9586 25.6615 80.983 25.6144C80.9988 25.5908 81.3424 25.6379 81.7348 25.7254C82.6333 25.9071 84.6184 25.946 85.5169 25.7878C86.4642 25.6227 87.6487 25.212 88.3833 24.786C89.6899 24.0367 91.0541 22.5076 91.6579 21.1048C93.1443 17.7067 92.8424 13.2443 90.9478 10.4303C90.4173 9.64215 89.3148 8.54598 88.5788 8.08115C86.7244 6.89895 83.9313 6.48823 81.3999 7.01689C80.9586 7.11124 80.5661 7.15842 80.5345 7.11957C80.4943 7.08766 80.3879 6.77268 80.2901 6.42579C80.1924 6.08722 80.086 5.7556 80.0616 5.69316C80.0285 5.5988 80.4943 5.59048 83.1982 5.62239C84.9462 5.64598 86.6698 5.70148 87.0291 5.74866C88.9238 6.01646 90.6473 6.56038 91.7657 7.27081C92.6397 7.81474 93.8731 9.01359 94.4524 9.87249C95.3019 11.1255 95.8496 12.5449 96.1515 14.2239C96.3643 15.4463 96.3226 17.5818 96.0609 18.7487C95.3178 22.0913 93.4806 24.4877 90.6301 25.8211C89.4053 26.3969 88.0986 26.7508 86.4153 26.9644C85.6808 27.0588 80.6164 27.1767 80.6164 27.099L80.615 27.0963Z"></path><path fill="#D1D1D1" d="M37.3017 13.5134C37.2284 13.3788 36.8934 12.6462 36.5671 11.8969C36.2322 11.1407 35.8886 10.3914 35.8081 10.2249C35.6615 9.92521 35.6615 9.91689 35.8484 9.59359C37.0976 7.48033 39.6132 5.86383 42.5788 5.27273C43.6483 5.06043 45.4451 5.03684 46.5233 5.22555C47.3728 5.3754 48.4754 5.73062 49.2516 6.10804C50.0106 6.47851 50.4203 6.57287 50.7624 6.46325C51.1304 6.34531 51.5718 5.84024 51.7011 5.39899C51.7989 5.0521 51.8075 5.04378 52.1511 5.04378H52.4946L52.5435 6.48684C52.5679 7.27497 52.6585 8.89148 52.7318 10.0667C52.8051 11.2489 52.8468 12.2744 52.8138 12.3451C52.7893 12.4159 52.6916 12.4561 52.5852 12.4395C52.4386 12.4242 52.3566 12.2813 52.1525 11.7068C51.589 10.1306 50.8458 8.95531 49.841 8.02564C48.7226 6.9933 47.4145 6.40914 45.8146 6.22875C43.2414 5.93737 40.5303 7.15842 39.1014 9.24808C38.3985 10.2735 37.9169 11.4474 37.6237 12.8516L37.4354 13.7577L37.3046 13.5134H37.3017Z"></path><path fill="#EF272D" d="M6.509 41.4922C6.47594 41.4686 6.4515 41.1606 6.4515 40.822V40.2073H13.1905H19.9367L19.9123 40.8622L19.8878 41.5089L13.2236 41.5324C9.56512 41.5408 6.53487 41.5241 6.51044 41.4936L6.509 41.4922Z"></path><path fill="#EF272D" d="M94.7442 40.847C94.7442 40.2712 94.76 40.224 94.9325 40.1768C95.0303 40.1532 98.0778 40.1296 101.712 40.1296H108.303V40.7998V41.47H101.523H94.7442V40.847Z"></path><path fill="#EF272D" d="M65.7498 27.6652C64.239 27.5472 62.7684 27.1296 61.6659 26.5135C61.3712 26.3484 60.8566 25.946 60.5231 25.6227C59.5182 24.6444 58.9303 23.5413 58.5379 21.8777C58.3826 21.1991 58.3668 20.8287 58.3251 14.3488L58.2762 7.5289L58.0807 7.1501C57.7544 6.49517 57.2642 6.2357 56.235 6.1566L55.5809 6.10943V5.87354V5.63766L56.1933 5.59048C56.5282 5.55857 58.6198 5.53498 60.8321 5.52804L64.8586 5.51971L64.8341 5.81943L64.8097 6.11082L64.0262 6.15799C62.7526 6.22876 62.0827 6.63948 61.7636 7.54555C61.6486 7.87718 61.6242 8.60981 61.5997 13.5606C61.5667 20.9244 61.6242 21.6334 62.4493 23.25C62.9639 24.2518 63.8624 25.1495 64.7694 25.5672C65.8231 26.0556 66.2644 26.1347 67.8327 26.1264C69.1308 26.1264 69.2702 26.1111 69.9157 25.9057C72.3163 25.1329 73.5181 23.8327 74.0154 21.4433C74.0974 21.0493 74.1218 19.4244 74.1218 14.2697V7.60799L73.9421 7.23751C73.5827 6.48129 73.1012 6.22043 71.9167 6.15799L71.1002 6.11082V5.87493V5.63904L74.9642 5.61546L78.8282 5.60019L78.8037 5.85273L78.7793 6.11359L78.085 6.16909C76.958 6.24818 76.3614 6.57842 75.9862 7.32077L75.7577 7.77034L75.7088 14.1961C75.6513 21.1658 75.6441 21.3781 75.1784 22.7893C74.7787 24.027 74.2713 24.8082 73.2909 25.7143C72.7605 26.2027 72.4744 26.3928 71.7068 26.7549C69.9013 27.6069 68.2108 27.8664 65.7527 27.6693L65.7498 27.6652Z"></path><path fill="#EF272D" d="M18.2304 26.8757C18.2548 26.6398 18.2879 26.6148 18.745 26.4899C19.4551 26.3012 19.8634 26.0723 20.2558 25.6463C20.8596 24.9844 20.8107 25.0871 27.1486 10.6426C28.2843 8.0645 29.2804 5.7778 29.3696 5.55718C29.5406 5.16311 29.8109 4.96608 30.0639 5.06043C30.1286 5.08402 31.2814 7.65378 32.6198 10.7689C38.2145 23.7453 38.5825 24.582 39.0152 25.212C39.4968 25.9141 40.3219 26.3789 41.3511 26.5288C41.6372 26.5759 41.653 26.5912 41.653 26.8521V27.1199L37.3074 27.1046C33.0438 27.081 32.9547 27.081 32.9547 26.9228C32.9547 26.7341 33.2163 26.6079 33.8287 26.4885C34.3764 26.3858 34.7516 26.1569 35.0218 25.7795C35.1857 25.5436 35.2101 25.4326 35.1857 24.9913C35.1526 24.4793 34.8508 23.6662 33.5929 20.7968L33.2249 19.9448H28.9527C25.6364 19.9448 24.6646 19.9684 24.5999 20.0475C24.5094 20.1501 23.3335 22.8309 22.9008 23.9021C22.2554 25.495 22.7211 26.2512 24.5022 26.519C25.0988 26.6065 25.1059 26.6134 25.1146 26.8423V27.0782L21.6603 27.1018L18.2059 27.1171L18.2304 26.8729V26.8757ZM32.6543 18.5503C32.6298 18.4712 31.8291 16.5869 30.8732 14.364C29.3868 10.927 29.1094 10.3276 28.9786 10.3429C28.8636 10.3581 28.6839 10.6898 28.2843 11.5889C27.9896 12.2591 27.3858 13.6467 26.9359 14.6637C25.8003 17.2418 25.2368 18.5503 25.2368 18.6211C25.2368 18.653 26.9114 18.6835 28.9613 18.6835C32.4731 18.6835 32.6859 18.6752 32.6528 18.5489L32.6543 18.5503Z"></path><style>@media (prefers-color-scheme: light) { :root { filter: contrast(1) brightness(1); } }
@media (prefers-color-scheme: dark) { :root { filter: invert(100%); } }
</style></svg>